<?xml version="1.0" standalone="no"?>
<!DOCTYPE svg PUBLIC "-//W3C//DTD SVG 1.1//EN" "http://www.w3.org/Graphics/SVG/1.1/DTD/svg11.dtd" >
<svg xmlns="http://www.w3.org/2000/svg">
<metadata>Generated by IcoMoon</metadata>
<defs>
<font id="MagnoliaIcons" horiz-adv-x="1024">
<font-face units-per-em="1024" ascent="960" descent="-64" />
<missing-glyph horiz-adv-x="1024" />
<glyph unicode="&#x20;" d="" horiz-adv-x="512" />
<glyph unicode="&#xe000;" d="M793.64 320c-26.584 0-51.64-6.778-73.42-18.668l-146.658 146.668 146.658 146.636c21.78-11.888 46.808-18.636 73.42-18.636 84.798 0 153.58 68.742 153.58 153.56 0 84.828-68.782 153.63-153.58 153.63-84.858 0-153.64-68.802-153.64-153.63 0-26.552 6.778-51.558 18.636-73.37l-146.636-146.658-146.636 146.636c11.858 21.832 18.636 46.838 18.636 73.39 0 84.828-68.782 153.63-153.56 153.63-84.89 0-153.672-68.802-153.672-153.63 0-84.808 68.782-153.56 153.672-153.56 26.542 0 51.558 6.748 73.36 18.606l146.648-146.604-146.668-146.668c-21.77 11.888-46.786 18.668-73.328 18.668-84.89 0-153.672-68.802-153.672-153.6 0-84.87 68.782-153.62 153.672-153.62 84.776 0 153.56 68.752 153.56 153.62 0 26.604-6.778 51.6-18.668 73.38l146.656 146.658 146.668-146.658c-11.89-21.78-18.668-46.818-18.668-73.38 0-84.87 68.782-153.62 153.64-153.62 84.798 0 153.58 68.752 153.58 153.62 0 84.798-68.782 153.6-153.58 153.6z" />
<glyph unicode="&#xe001;" d="M51.18 684.298l224.532 224.532 59.77-59.77-224.532-224.532zM167.966 567.512l224.512 224.522 59.762-59.762-224.522-224.512zM571.72 163.706l224.522 224.524 59.75-59.752-224.522-224.522zM972.8 211.752l-224.522-224.562-59.76 59.78 224.5 224.502zM110.94 271.472l224.532-224.502-59.75-59.78-224.522 224.562zM392.53 103.966l-224.512 224.512 59.76 59.752 224.512-224.512zM796.262 507.76l-224.502 224.512 59.762 59.762 224.512-224.502zM913.050 624.538l-224.512 224.502 59.79 59.78 224.502-224.502zM287.478 448.030l224.522-224.532 224.502 224.532-224.502 224.502-224.522-224.502zM617 448.030l-105-105.030-105.032 105.030 105.032 104.992 105-104.992z" />
<glyph unicode="&#xe002;" d="M979.334 611.39l-92.16 159.61-283.004-163.39v326.79h-184.33v-326.79l-283.002 163.39-92.172-159.61 283.004-163.39-283.004-163.39 92.172-159.642 283.002 163.39v-326.778h184.33v326.778l283.004-163.39 92.16 159.642-283.004 163.39z" />
<glyph unicode="&#xe003;" d="M118.108 158.996c-0.001-0.14-0.001-0.305-0.001-0.47 0-60.321 48.354-109.22 108.002-109.22 59.648 0 108.002 48.899 108.002 109.22 0 0.165 0 0.33-0.001 0.495 0.001 0.114 0.001 0.279 0.001 0.445 0 60.321-48.354 109.22-108.002 109.22-59.648 0-108.002-48.899-108.002-109.22 0-0.165 0-0.33 0.001-0.495zM640.276 49.776h-153.046c0 206.11-165.284 373.156-369.172 373.156v0l-0.002 154.768c288.39 0 522.22-236.37 522.22-527.924zM748.34 49.776c0 351.878-282.174 637.132-630.282 637.132l-0.002 159.316c435.108 0 787.846-356.618 787.846-796.436l-157.562-0.002z" />
<glyph unicode="&#xe004;" d="M78.214 768v-640h867.564v640h-867.564zM874.67 199.106h-725.34v426.67h725.34v-426.67zM341.33 320h85.34l85.33 99.564 85.34-99.564h85.32l-170.66 199.106z" />
<glyph unicode="&#xe005;" d="M511.458 803.554c96.43 0 175.422-78.982 175.422-175.288 0-96.42-79.002-174.418-175.422-174.418-96.358 0-174.264 77.998-174.264 174.418-0.002 96.306 77.904 175.288 174.264 175.288zM133.622 266.752c0-96.378 77.896-174.306 174.306-174.306 96.338 0 175.34 77.926 175.34 174.306 0 96.39-79.002 175.36-175.34 175.36-96.41 0-174.306-78.97-174.306-175.36zM540.744 266.752c0-96.378 77.998-174.306 174.356-174.306 96.378 0 175.278 77.926 175.278 174.306 0 96.39-78.9 175.36-175.278 175.36-96.358 0-174.356-78.97-174.356-175.36z" />
<glyph unicode="&#xe006;" d="M341.33 405.34h85.34l85.33 99.554 85.33-99.554h85.34l-170.67 199.096zM220.446 853.33v-810.66h391.618l191.488 191.478 0.002 619.182h-583.108zM291.554 782.214h440.894v-504.872l-163.554-0.002v-163.564h-277.34v668.438z" />
<glyph unicode="&#xe007;" d="M575.672 682.004c-3.779 8.141-11.233 13.967-20.091 15.606-8.796 1.608-17.91-1.055-24.361-7.25l-332.278-317.297-48.609-22.702-62.781-15.114c-8.11-1.966-14.94-7.465-18.586-15.002-3.615-7.496-3.666-16.282-0.133-23.828l52.029-111.667c3.195-6.687 8.858-11.889 15.749-14.356 0.891-0.328 1.751-0.635 2.642-0.829 8.11-2.058 16.691-0.389 23.45 4.547l52.695 38.973 44.165 20.531c0.389-1.72 1.004-3.42 1.782-5.079l53.555-114.893c3.113-6.666 8.663-11.725 15.606-14.254 6.912-2.56 14.418-2.253 21.053 0.891l16.558 7.69c13.804 6.451 19.753 22.948 13.302 36.669l-46.029 98.673 384.44 42.578c8.888 0.973 16.783 6.185 21.166 13.998 4.444 7.864 4.813 17.295 1.004 25.385l-166.328 356.731zM923.924 624.497c-38.81 83.251-105.861 148.193-186.481 185.723l-23.941-51.558c68.69-31.969 125.809-87.306 158.863-158.218 32.809-70.277 39.424-148.163 19.579-222.198l54.979-14.612c23.245 86.927 15.493 178.34-22.999 260.864zM684.943 697.088l-23.91-51.528c38.502-24.33 70.216-59.392 90.143-102.113 19.753-42.23 26.501-88.136 20.552-133.253l55.532-14.766c9.175 58.112 0.922 117.606-24.535 172.083-25.661 55.020-67.389 99.43-117.78 129.577z" />
<glyph unicode="&#xe008;" d="M468.234 474.522c-27.792-19.672-61.676-31.284-98.344-31.284-36.762 0-70.696 11.612-98.54 31.284-79.596-14.388-140.514-84.286-140.514-167.824v-138.394h477.87v138.394c0 83.538-60.886 153.446-140.472 167.824zM369.838 500.142c62.842 0 113.766 50.77 113.766 113.716 0 62.832-50.924 113.838-113.766 113.838-62.976 0-113.89-51.006-113.89-113.838 0-62.946 50.914-113.716 113.89-113.716zM688.282 452.854c53.924 0 97.576 43.56 97.576 97.556 0 53.882-43.664 97.618-97.576 97.618-53.996 0-97.67-43.736-97.67-97.618 0-53.986 43.664-97.556 97.67-97.556zM772.68 430.91c-23.86-16.824-52.9-26.828-84.346-26.828-23.982 0-46.54 5.836-66.498 16.056 20.552-33.168 32.39-72.058 32.39-113.438v-138.394h238.93l-0.002 118.66c0 71.67-52.224 131.614-120.474 143.944z" />
<glyph unicode="&#xe009;" d="M132.976 106.66h758.048v420.116l-190.926-162.836v162.836l-204.79-173.28v173.28l-362.332-299.336zM132.976 313.62l31.498 475.71h73.524l42.014-360.172z" />
<glyph unicode="&#xe00a;" d="M512 701.194c-94.248 0-170.67-76.41-170.67-170.67 0-94.248 76.422-170.67 170.67-170.67s170.67 76.422 170.67 170.67c0 94.26-76.422 170.67-170.67 170.67zM512 438.056c-51.078 0-92.446 41.338-92.446 92.468 0 51.088 41.37 92.416 92.446 92.416s92.446-41.338 92.446-92.416c0-51.138-41.368-92.468-92.446-92.468zM220.446 853.33v-810.66h391.618l191.488 191.478 0.002 619.182h-583.108zM291.554 782.214h440.894v-504.872l-163.554-0.002v-163.564h-277.34v668.438z" />
<glyph unicode="&#xe00b;" d="M259.84 177.776h-71.116v689.778h468.776v-71.108h-397.66zM330.946 725.33v-696.894h339.118l165.212 165.222v531.672h-504.33zM402.054 654.214h362.106v-417.372l-137.278-0.002v-137.288l-224.828 0.002v554.66z" />
<glyph unicode="&#xe00c;" d="M147.394 626.412h318.556v-90.994h-318.556zM147.394 464.64h318.556v-261.684h-318.556zM552.724 293.98h318.556v-91.024h-318.556zM552.724 626.412h318.556v-261.664h-318.556z" />
<glyph unicode="&#xe00d;" d="M943.564 766.72v1.28h-867.562v-640h867.564l-0.002 496.752h0.942v141.968h-0.942zM872.438 366.572h-319.96v258.18h319.96v-258.18zM467.138 624.752v-89.722h-320.030v89.722h320.030zM147.108 465.47h320.020v-266.352l-320.020-0.002v266.354zM552.478 199.106v98.212h319.96v-98.212h-319.96z" />
<glyph unicode="&#xe00e;" d="M329.278 599.828h178.974l8.888-82.718c31.528-13.446 60.222-34.11 83.672-59.372l82.74 15.258 54.836-169.83-76.39-33.424c-2.724-35.788-13.528-69.058-30.648-98.754l40.458-73.83-144.776-104.264-55.726 61.112c-32.358-7.158-67.39-7.158-102.502 0l-57.498-61.112-143.882 105.184 40.438 71.056c-17.94 29.716-28.784 63.856-32.472 98.97l-75.448 35.994 55.664 168.898 81.008-16.026c22.498 25.14 50.36 44.81 81.838 59.218l10.826 83.64zM419.174 159.518c74.188 0 133.724 59.484 133.724 133.642 0 74.312-59.526 133.836-133.724 133.836-74.138 0-133.766-59.526-133.766-133.836-0.008-74.158 59.618-133.642 133.766-133.642zM664.034 903.106h113.716l5.754-52.542c19.998-8.56 38.246-21.678 53.114-37.672l52.562 9.666 34.878-108.032-48.578-21.196c-1.69-22.804-8.582-43.992-19.416-62.832l25.672-46.786-91.966-66.406-35.39 38.974c-20.644-4.618-42.936-4.618-65.218 0l-36.526-38.974-91.474 66.908 25.672 45.23c-11.336 18.77-18.228 40.602-20.562 62.854l-47.944 22.814 35.41 107.438 51.416-10.27c14.356 16.056 32 28.6 52.030 37.714l6.85 53.112zM721.142 622.388c47.688 0 85.944 38.144 85.944 85.894 0 47.596-38.246 85.872-85.944 85.872-47.636 0-85.832-38.278-85.832-85.872 0-47.75 38.186-85.894 85.832-85.894z" />
<glyph unicode="&#xe00f;" d="M230.666 774.44v-140.882l-131.39 0.002v-512h694.068v140.88h131.38v512h-694.058zM287.56 660.664h261.704v-341.33h-261.704v341.33zM156.16 178.442v341.33h74.496v-257.332h85.278v-83.998h-159.774zM372.838 178.442v83.998h154.040v-83.998h-154.040zM736.44 178.442h-152.658v83.998h152.658v-83.998zM867.84 319.344h-261.704v341.32h261.704v-341.32z" />
<glyph unicode="&#xe010;" d="M879.964 763.832c-200.1 0-367.156 110.828-367.156 110.828s-168.642-110.828-368.752-110.828c-17.356-374.528 72.776-625.080 367.136-742.492h1.608c294.398 117.412 384.5 367.964 367.164 742.492zM597.33 405.3l-85.33 99.562-85.33-99.564h-85.34l170.67 199.118 170.67-199.116h-85.34z" />
<glyph unicode="&#xe011;" d="M739.564 401.050c-23.674 0-45.384-8.294-62.484-22.088l-297.924 204.83c3.124 9.646 4.844 19.916 4.844 30.608 0 0.43-0.062 0.85-0.062 1.29l273.050 85.32c17.88-26.502 48.2-43.95 82.576-43.95 54.958 0 99.544 44.616 99.544 99.554 0 55.010-44.584 99.564-99.544 99.564-54.978 0-99.564-44.554-99.564-99.564 0-0.43 0.062-0.85 0.062-1.28l-273.030-85.33c-17.89 26.522-48.21 43.95-82.586 43.95-54.968 0-99.554-44.564-99.554-99.554 0-45.066 30.004-83.128 71.106-95.376v-284.252c-41.104-12.258-71.106-50.32-71.106-95.366 0-55 44.584-99.564 99.554-99.564s99.554 44.564 99.554 99.564c0 45.046-30.004 83.108-71.106 95.366v284.242c12.554 3.748 24.064 9.882 34.008 17.92l297.944-204.83c-3.124-9.636-4.844-19.916-4.844-30.598 0-54.938 44.584-99.564 99.564-99.564 54.958 0 99.544 44.616 99.544 99.564-0.014 54.99-44.588 99.544-99.546 99.544z" />
<glyph unicode="&#xe012;" d="M890.614 529.336h-398.612c-32.646 84.112-114.196 143.882-209.858 143.882-124.396 0-225.25-100.832-225.25-225.218 0-124.386 100.864-225.28 225.25-225.28 95.662 0 177.224 59.842 209.858 143.944h398.612c42.28 0 76.504 36.404 76.504 81.336-0.012 44.892-34.224 81.336-76.504 81.336zM199.106 376.894c-39.28 0-71.106 31.806-71.106 71.106 0 39.28 31.826 71.106 71.106 71.106s71.106-31.826 71.106-71.106c0.012-39.302-31.824-71.106-71.106-71.106z" />
<glyph unicode="&#xe013;" d="M511.99 389.16c-57.784 0-105.062-47.278-105.062-105.022 0-57.754 47.278-105 105.062-105 57.734 0 105.094 47.248 105.094 105-0.002 57.744-47.362 105.022-105.094 105.022zM511.99 237.424c-25.886 0-46.746 20.92-46.746 46.714 0 25.334 20.858 47.32 46.746 47.32 25.334 0 47.268-21.986 47.268-47.32 0-25.794-21.934-46.714-47.268-46.714zM718.858 507.996v131.338c0 114.064-92.784 206.888-206.888 206.888-105.492 0-192.808-79.39-205.332-181.606h-1.556v-156.61h-91.812v-458.22h597.442v458.21h-91.854zM388.25 639.334c0 68.23 55.5 123.73 123.72 123.73 68.25 0 123.73-55.5 123.73-123.73v-131.338h-247.45v131.338zM511.99 135.096c-128.204 0-214.498 149.044-214.498 149.044s86.302 149.638 214.498 149.638c128.134 0 214.528-149.638 214.528-149.638s-86.396-149.044-214.528-149.044z" />
<glyph unicode="&#xe014;" d="M581.858 374.498h-241.398l-0.010 171.334-241.306-206.888 241.326-206.848-0.010 171.284h241.398zM924.856 557.004l-241.296 206.89-0.020-171.336h-241.398v-71.106h241.398l-0.010-171.296z" />
<glyph unicode="&#xe015;" d="M284.447 568.893c0-133.56 108.247-241.777 241.746-241.777 133.53-0.010 241.807 108.216 241.807 241.777 0 133.55-108.278 241.777-241.807 241.777-133.499 0-241.746-108.227-241.746-241.777zM526.223 700.662l170.67-199.107h-85.33l-85.34 99.553-85.33-99.553h-85.33l170.66 199.107zM788.531 57.938c-59.105 28.785-130.775 47.34-208.722 53.535h-10.916v54.835c79.749 8.468 155.924 40.079 217.825 92.047l21.811 18.278-69.499 82.801c-13.312-13.517-27.924-25.754-43.592-36.577l32.174-38.328c-58.644-41.533-129.075-64.143-201.216-64.143-103.332 0-200.694 45.394-267.11 124.529-117.33 139.827-105.81 345.61 21.832 471.685l32.195-38.359c13.302 13.527 27.894 25.784 43.581 36.588l-69.509 82.811-21.78-18.309c-171.192-143.636-193.546-399.77-49.889-570.972 67.942-80.998 163.942-130.642 267.837-141.548v-55.337h-10.967c-77.885-6.185-149.617-24.75-208.722-53.535-11.223-5.407-17.162-17.879-14.326-30.106 2.775-12.165 13.609-20.716 26.112-20.716h501.115c12.564 0 23.327 8.561 26.173 20.716 2.755 12.227-3.185 24.699-14.408 30.106z" />
<glyph unicode="&#xe016;" d="M106.67 796.446v-305.786h71.106v234.67h291.554v71.116zM177.776 405.34h-71.106v-305.786h362.66v71.126h-291.554zM846.224 490.66h71.106v305.786h-362.66v-71.116h291.554zM846.224 405.34v-234.66h-291.554v-71.126h362.66v305.786zM341.33 362.66h85.34l85.33 99.564 85.33-99.564h85.34l-170.67 199.116z" />
<glyph unicode="&#xe017;" d="M513.67 825.548c-100.69 0-195.348-39.188-266.536-110.366-66.304-66.294-104.806-152.934-109.762-245.852h-98.756l142.222-165.918 142.224 165.918h-114.38c4.874 73.912 35.88 142.726 88.74 195.574 57.754 57.744 134.554 89.548 216.258 89.548 168.55 0 305.736-137.176 305.776-305.786 0-81.664-31.796-158.444-89.538-216.176s-134.522-89.538-216.176-89.538h-0.052c-106.168 0-199.834 54.406-254.68 136.756l-49.582-53.064c68.628-93.758 179.416-154.808 304.262-154.808l0.052 35.564v-35.564c0.010 0 0.010 0 0.020 0 100.648 0 195.288 39.198 266.444 110.366 71.178 71.178 110.376 165.796 110.376 266.466-0.080 207.818-169.164 376.88-376.912 376.88zM341.32 376.894h85.34l85.33 99.542 85.33-99.542h85.34l-170.67 199.106z" />
<glyph unicode="&#xe018;" d="M361.78 667.034l-56.506 99.552h-191.498v-637.172h796.448v537.62z" />
<glyph unicode="&#xe019;" d="M220.446 853.33v-810.66h391.618l191.498 191.478 0.002 619.182h-583.118zM291.554 782.214h440.884v-504.872l-163.554-0.002v-163.564h-277.33v668.438z" />
<glyph unicode="&#xe01a;" d="M368.64 417.28h286.72v-51.2h-286.72zM368.64 550.4h286.72v-51.2h-286.72zM368.64 683.52h286.72v-51.2h-286.72zM220.446 853.33v-810.66h391.628l191.478 191.478 0.002 619.182h-583.108zM291.554 782.214h440.904v-504.884h-163.564v-163.564h-277.34v668.448z" />
<glyph unicode="&#xe01b;" d="M617.176 381.236h-49.5l-55.89 184.34-55.902-184.34h-49.5l-81.070 303.82h61.87l46.94-191.59 55.47 191.59h44.38l55.48-191.59 47.36 191.59h61.88l-81.518-303.82zM220.446 853.33v-810.66h391.618l191.498 191.478 0.002 619.182h-583.118zM291.554 782.214h440.884v-504.872l-163.534-0.002v-163.564h-277.35v668.438z" />
<glyph unicode="&#xe01c;" d="M570.664 381.236l-58.89 105.82-58.45-105.82h-67.84l94.3 155.75-88.33 148.070h67.42l52.91-98.15 53.34 98.15h67l-88.34-148.070 94.74-155.75h-67.86zM220.446 853.33v-810.66h391.618l191.498 191.478 0.002 619.182h-583.118zM291.554 782.214h440.884v-504.872l-163.544-0.002v-163.564h-277.34v668.438z" />
<glyph unicode="&#xe01d;" d="M531.2 495.596h-58.45v-114.36h-59.31v303.82h117.76c62.74 0 100.28-43.1 100.28-94.73s-37.54-94.73-100.28-94.73zM528.22 632.146h-55.47v-83.2h55.47c26.88 0 43.94 16.64 43.94 41.39 0 24.74-17.060 41.81-43.94 41.81zM220.446 853.33v-810.66h391.618l191.498 191.478 0.002 619.182h-583.118zM291.554 782.214h440.884v-504.872l-163.554-0.002v-163.564h-277.33v668.438z" />
<glyph unicode="&#xe01e;" d="M168.622 475.28h-38.964v-76.236l-39.546-0.002v202.528h78.51c41.81 0 66.846-28.734 66.846-63.15 0-34.418-25.036-63.14-66.846-63.14zM166.626 566.302h-36.976v-55.47h36.976c17.92 0 29.296 11.090 29.296 27.596s-11.376 27.874-29.296 27.874zM395.316 418.376c-13.364-13.364-32.42-19.344-53.474-19.344h-73.104v202.538h73.104c21.054 0 40.11-5.97 53.474-19.344 22.764-22.754 20.48-50.626 20.48-81.070 0-30.434 2.282-60.006-20.48-82.78zM367.728 553.78c-6.83 8.254-15.934 12.524-29.584 12.524h-29.87v-131.984h29.87c13.65 0 22.764 4.27 29.584 12.514 7.394 9.104 8.53 23.614 8.53 54.334 0 30.718-1.136 43.508-8.53 52.612zM495.728 566.302v-49.776h79.934v-35.266h-79.934v-82.206h-39.536v202.516h133.416v-35.266l-93.88-0.002zM220.436 853.33v-155.474h71.128v84.368h440.872v-504.894h-163.552v-163.554h-277.32v214.304h-71.128v-285.41h391.62l191.508 191.488v619.172z" />
<glyph unicode="&#xe01f;" d="M78.224 768v-640h867.554v640h-867.554zM874.66 199.106h-725.33v426.67h725.33v-426.67z" />
<glyph unicode="&#xe020;" d="M131.974 705.566v-540.446h739.552v540.446h-739.552zM356.72 544.84l86.918-94.218-81.92-86.384-173.414-0.002 168.416 180.604zM814.644 222.024h-492.658l331.048 385.936 161.608-129.054 0.002-256.882z" />
<glyph unicode="&#xe021;" d="M512 603.146c-85.544 0-155.146-69.602-155.146-155.146s69.602-155.146 155.146-155.146c85.544 0 155.136 69.602 155.136 155.146 0 85.544-69.592 155.146-155.136 155.146zM465.448 326.44v248.26l144.794-124.14-144.794-124.12zM142.224 718.224v-540.436h739.564l-0.002 540.436h-739.562zM512 261.816c-102.656 0-186.184 83.518-186.184 186.184s83.528 186.184 186.184 186.184 186.184-83.528 186.184-186.184-83.528-186.184-186.184-186.184z" />
<glyph unicode="&#xe022;" d="M142.224 718.224v-540.436h739.564l-0.002 540.436h-739.562zM537.784 263.096l-120.176 120.188h-87.828v129.432h87.828l120.166 120.176v-369.796zM597.33 300.432v34.058c34.468 25.988 56.904 67.134 56.904 113.51s-22.426 87.522-56.904 113.5v34.068c50.934-29.562 85.34-84.562 85.34-147.568 0-62.996-34.406-118.016-85.34-147.568z" />
<glyph unicode="&#xe023;" d="M308.532 550.778h256.808v-73.358h-256.808zM308.532 420.392h256.808v-210.954h-256.808zM635.28 282.798h256.798v-73.36h-256.798zM635.28 550.778h256.798v-210.932h-256.798zM192 113.776v668.438h440.904v-128.022h71.096v199.138h-583.106v-810.65h583.106v71.096z" />
<glyph unicode="&#xe024;" d="M857.978 751.77l123.352-71.2-199.29-345.354-123.362 71.178zM629.032 210.974l9.494 158.906 123.31-71.128zM285.41 239.422h288.676v-56.904h-288.676zM192 113.776v668.438h440.894v-128.022h71.106v199.138h-583.106v-810.65h583.106v71.096zM192 113.776v668.438h440.894v-128.022h71.106v199.138h-583.106v-810.65h583.106v71.096z" />
<glyph unicode="&#xe025;" d="M512.082 533.33c78.552 0 142.192 63.498 142.192 142.162 0 78.52-63.642 142.274-142.192 142.274-78.726 0-142.366-63.754-142.366-142.274 0-78.664 63.64-142.162 142.366-142.162zM635.064 501.33c-34.764-24.556-77.096-39.116-122.92-39.116-45.946 0-88.36 14.552-123.166 39.116-99.502-17.94-175.636-105.338-175.636-209.776v-173.026h291.768c-0.87 0.532-1.772 0.912-2.6 1.648l-102.502 102.338c-4.998 4.986-9.83 10.516-14.5 16.578-4.67 6.052-8.744 12.38-12.248 18.996-3.502 6.616-6.278 13.496-8.336 20.664-2.058 7.168-3.082 14.356-3.082 21.576 0 12.564 1.884 23.952 5.662 34.182 3.778 10.21 9.176 18.852 16.25 25.896 7.056 7.056 15.586 12.544 25.59 16.424s21.218 5.826 33.67 5.826c6.554 0 13.056-1.034 19.496-3.082 6.44-2.058 12.544-4.762 18.34-8.080 5.776-3.338 11.274-7.138 16.496-11.418 5.222-4.28 10.106-8.582 14.664-12.922 4.332 4.342 9.164 8.642 14.5 12.922 5.336 4.28 10.916 8.080 16.742 11.418 5.836 3.318 11.898 6.022 18.176 8.080 6.278 2.048 12.678 3.082 19.24 3.082 12.564 0 23.9-1.936 33.996-5.826 10.118-3.892 18.698-9.37 25.764-16.424 7.046-7.046 12.422-15.688 16.158-25.896 3.718-10.23 5.58-21.616 5.58-34.182 0-7.322-1.044-14.552-3.082-21.658-2.058-7.116-4.884-14.040-8.5-20.756-3.624-6.708-7.742-13.096-12.422-19.16-4.66-6.052-9.502-11.582-14.5-16.578l-102.492-102c-0.738-0.738-1.598-1.116-2.416-1.648h291.912l0.004 173.036c-0.010 104.438-76.154 191.764-175.606 209.766z" />
<glyph unicode="&#xe026;" d="M512.082 533.33c78.552 0 142.202 63.498 142.202 142.162 0 78.53-63.652 142.284-142.202 142.284-78.726 0-142.366-63.754-142.366-142.284 0-78.674 63.64-142.162 142.366-142.162zM635.074 501.33c-34.764-24.566-77.096-39.116-122.932-39.116-45.946 0-88.36 14.552-123.176 39.116-99.502-17.95-175.636-105.35-175.636-209.786v-173.036h597.34v173.036c0 104.436-76.144 191.774-175.596 209.786zM536.954 148.276h-54.958v52.982h54.958v-52.982zM571.996 304.814l-29.47-39.034c-3.984-5.182-7.168-13.538-7.168-20.316v-8.356h-51.784v11.928c0 17.142 4.782 27.884 15.144 41.42l29.47 37.836c6.38 8.366 11.55 17.94 11.55 26.696 0 18.718-12.35 32.656-32.256 32.656-21.114 0-31.856-14.736-31.856-33.064h-51.784c0 49.378 37.438 79.646 83.64 79.646 45.016 0 84.040-29.072 84.040-79.646 0.002-19.896-8.374-35.030-19.526-49.766z" />
<glyph unicode="&#xe027;" d="M592.936 302.94c-19.416 0-42.28-11.582-42.28-44.656v-139.776h84.040v138.322c0 34.528-21.894 46.11-41.76 46.11zM635.084 501.31c-34.776-24.556-77.096-39.106-122.942-39.106-45.946 0-88.36 14.552-123.166 39.106-99.502-17.95-175.636-105.338-175.636-209.776v-173.026h127.028v238.376h61.696v-23.316c16.528 17.018 39.824 26.234 63.16 26.234 28.14 0 50.974-10.22 67-32.020 21.36 22.324 44.216 32.020 75.776 32.020 25.262 0 48.076-8.274 62.156-22.384 20.418-20.336 27.678-44.144 27.678-71.834v-147.088h112.824l0.002 173.036c0 104.438-76.124 191.776-175.576 209.778zM445.778 302.94c-19.886 0-42.28-11.582-42.28-46.11v-138.332h84.050l-0.002 138.332c0.012 34.528-21.852 46.11-41.768 46.11zM512.082 533.3c78.552 0 142.192 63.508 142.192 142.162 0 78.53-63.642 142.284-142.192 142.284-78.726 0-142.366-63.754-142.366-142.284 0-78.654 63.64-142.162 142.366-142.162z" />
<glyph unicode="&#xe028;" d="M512.082 533.3c78.552 0 142.192 63.508 142.192 142.162 0 78.53-63.642 142.284-142.192 142.284-78.726 0-142.366-63.754-142.366-142.284 0-78.654 63.64-142.162 142.366-142.162zM635.074 501.31c-34.776-24.556-77.096-39.106-122.932-39.106-45.946 0-88.36 14.552-123.166 39.106-99.502-17.95-175.636-105.338-175.636-209.776v-173.026h154.686l104.868 104.97c0 0 0.052 0.030 0.164 0.030l18.002 18.054c0.574 0.666 1.332 1.014 1.976 1.638-15.698 40.356-7.26 88.012 25.304 120.606 29.962 29.952 72.53 39.444 110.552 28.702l-48.046-48.006 11.736-66.54 64.984-12.206 49.018 49.030c10.762-38 1.218-80.558-28.724-110.5-32.564-32.594-80.138-41.042-120.556-25.324-0.604-0.676-1.004-1.402-1.618-1.996l-58.46-58.46h313.436l-0.002 173.026c0 104.438-76.134 191.776-175.586 209.778z" />
<glyph unicode="&#xe029;" d="M635.064 501.31c-34.764-24.556-77.096-39.106-122.92-39.106-45.946 0-88.36 14.552-123.166 39.106-99.502-17.95-175.636-105.338-175.636-209.776v-173.026h597.33l-0.002 173.024c-0.010 104.438-76.154 191.776-175.606 209.778zM512.082 533.3c78.552 0 142.192 63.508 142.192 142.162 0 78.53-63.642 142.284-142.192 142.284-78.726 0-142.366-63.754-142.366-142.284 0-78.654 63.64-142.162 142.366-142.162z" />
<glyph unicode="&#xe02a;" d="M457.288 501.33c-34.734-24.556-77.096-39.116-122.932-39.116-45.946 0-88.36 14.552-123.166 39.116-99.492-17.972-175.636-105.328-175.636-209.766v-173.026h597.33v173.026c0.010 104.438-76.104 191.764-175.596 209.766zM334.306 533.33c78.552 0 142.192 63.498 142.192 142.162 0 78.52-63.642 142.274-142.192 142.274-78.726 0-142.356-63.754-142.356-142.274-0.002-78.664 63.63-142.162 142.356-142.162zM732.364 474.276c67.39 0 121.958 54.436 121.958 121.908 0 67.368-54.568 122.030-121.958 122.030-67.502 0-122.082-54.662-122.082-122.030 0.002-67.462 54.58-121.908 122.082-121.908zM837.858 446.832c-29.808-21.054-66.14-33.556-105.452-33.556-29.962 0-58.164 7.312-83.118 20.060 25.682-41.482 40.488-90.102 40.488-141.784v-173.026h298.67v148.39c0 89.58-65.28 164.464-150.588 179.916z" />
<glyph unicode="&#xe02b;" d="M839.116 90.050h-654.234l0.002 201.482c0 116.992 83.702 216.976 199.034 237.772l11.724 2.11 9.728-6.86c31.448-22.18 68.372-33.904 106.772-33.904 38.278 0 75.12 11.724 106.516 33.904l9.738 6.882 11.736-2.13c115.302-20.87 198.984-120.852 198.984-237.762v-201.494zM241.776 146.944h540.436l0.002 144.588c0 85.648-58.778 159.426-141.302 179.486-38.656-24.422-82.924-37.274-128.778-37.274-45.978 0-90.306 12.84-129.014 37.274-82.544-20.008-141.352-93.788-141.352-179.496l-0.002-144.578zM512.082 760.862c47.032 0 85.32-38.298 85.32-85.392 0-47.022-38.278-85.278-85.32-85.278-47.134 0-85.474 38.256-85.474 85.278 0 47.096 38.35 85.392 85.474 85.392zM512.082 817.756c-78.726 0-142.366-63.754-142.366-142.284 0-78.674 63.642-142.162 142.366-142.162 78.552 0 142.192 63.498 142.192 142.162 0.010 78.54-63.63 142.284-142.192 142.284v0z" />
<glyph unicode="&#xe02c;" d="M361.78 667.034l-56.474 99.554-191.53-0.002v-637.174h796.436l0.002 537.622h-548.434zM420.168 206.224l-93.050 92.232 93.050 92.272 91.422-91.444-91.422-93.060zM420.168 391.496l-93.050 92.252 93.050 92.252 91.422-92.252-91.422-92.252zM603.842 206.224l-91.422 93.062 91.422 91.444 93.050-92.272-93.050-92.234zM603.842 391.496l-91.422 92.252 91.422 92.252 93.050-92.252-93.050-92.252z" />
<glyph unicode="&#xe02d;" d="M342.446 448.716l168.806 170.312-168.806 170.302-171.776-170.302zM342.446 106.66l168.806 171.776-168.806 168.786-171.776-170.282zM681.584 448.716l171.756 170.312-171.756 170.302-168.806-170.302zM681.584 106.66l171.756 170.28-171.756 170.282-168.806-168.786z" />
<glyph unicode="&#xe02e;" d="M512 650.752l202.742-202.742-202.742-202.742-202.742 202.742z" />
<glyph unicode="&#xe02f;" d="M512 824.852c-100.69 0-195.358-39.188-266.536-110.366-71.198-71.178-110.388-165.836-110.356-266.516 0-207.79 169.072-376.822 376.884-376.822h0.052c0.010 0 0.010 0 0.020 0 100.648 0 195.288 39.198 266.456 110.356 71.178 71.178 110.376 165.806 110.376 266.486-0.054 207.8-169.136 376.862-376.896 376.862zM455.106 284.436v85.34l99.554 85.33-99.554 85.33v85.33l199.106-170.67-199.106-170.66z" />
<glyph unicode="&#xe030;" d="M455.086 557.742c-60.498 0-110.060-49.52-110.060-110.028s49.552-110.060 110.060-110.060 110.040 49.562 110.040 110.060-49.542 110.028-110.040 110.028zM455.086 398.746c-27.116 0-48.998 21.914-48.998 48.968 0 26.522 21.882 49.582 48.998 49.582 26.552 0 49.552-23.060 49.552-49.582 0-27.054-23-48.968-49.552-48.968zM648.14 734.72h-538.776v-573.44h538.778l288.584 286.69-288.586 286.75zM455.086 291.564c-134.278 0-224.728 156.16-224.728 156.16s90.45 156.724 224.728 156.724c134.278 0 224.778-156.724 224.778-156.724s-90.5-156.16-224.778-156.16z" />
<glyph unicode="&#xe031;" d="M648.14 734.72h-550.798v-573.44h550.8l288.584 286.69-288.586 286.75zM313.836 221.062h-129.3v28.436h129.3v-28.436zM334.644 235.284l7.496 125.062 97.054-56.002-104.55-69.060zM455.034 333.004l-97.064 56.002 156.888 271.718 97.064-56.064-156.888-271.656z" />
<glyph unicode="&#xe032;" d="M648.14 734.72h-552.57v-573.44h552.57l288.584 286.69-288.584 286.75zM616.816 408.822c-0.092-0.46-0.122-0.922-0.216-1.392l-0.522 0.552-27.944-32.624-71.138 82.944h46.388c-2.416 34.1-16.722 65.864-41.134 90.266-26.87 26.86-62.586 41.646-100.598 41.646-78.418 0-142.224-63.796-142.224-142.224s63.796-142.224 142.224-142.224c50.31 0 94.484 26.316 119.778 65.844l39.64-42.424c-36.342-48.63-94.178-80.312-159.416-80.312-109.794 0-199.106 89.324-199.106 199.106 0 109.784 89.324 199.106 199.106 199.106 53.196 0 103.22-20.706 140.81-58.306 35.174-35.164 55.306-81.192 57.804-130.498h38.942l-42.394-49.46z" />
<glyph unicode="&#xe033;" d="M421.918 588.36l-140.778 140.78 95.528 95.528-261.458 20.122 20.122-261.458 95.518 95.518 140.78-140.768zM908.78 844.79l-261.418-20.122 95.52-95.518-140.842-140.77 50.258-50.298 140.862 140.778 95.518-95.528zM421.928 306.216l-50.298 50.28-140.78-140.8-95.518 95.528-20.122-261.448 261.458 20.112-95.528 95.528zM908.78 49.776l-20.102 261.448-95.518-95.528-140.862 140.8-50.278-50.29 140.862-140.81-95.52-95.508z" />
<glyph unicode="&#xe034;" d="M933.918 74.916l-140.778 140.8 95.518 95.54-261.498 20.1 20.182-261.438 95.508 95.52 140.79-140.8zM396.78 331.356l-261.418-20.1 95.52-95.54-140.8-140.8 50.278-50.278 140.8 140.8 95.518-95.52zM933.918 819.64l-50.278 50.288-140.78-140.788-95.518 95.528-20.182-261.448 261.498 20.112-95.518 95.528zM396.78 563.22l-20.102 261.448-95.518-95.528-140.8 140.788-50.278-50.288 140.8-140.79-95.52-95.518z" />
<glyph unicode="&#xe035;" d="M843.162 303.412l142.224 165.918h-98.776c-4.956 92.908-43.458 179.558-109.762 245.852-63.918 63.918-146.78 101.888-235.92 109.016v64.696h-57.836v-145.306c-238.93-21.094-397.762-296.172-397.762-296.172s158.832-274.042 397.752-295.034v-145.286h57.836v66.14c112.22 9.082 210.698 67.4 273.664 153.396l-49.602 53.084c-49.5-74.342-130.662-125.706-224.062-135.056v608.216c70.124-6.912 135.158-37.51 185.64-87.982 52.838-52.848 83.856-121.662 88.74-195.574h-114.36l142.224-165.908zM303.022 447.416c0 105.042 78.736 192.44 180.060 206.664v-117.34c-37.254-12.656-64.082-48.824-64.082-89.324 0-41.288 26.828-76.216 64.082-88.36v-118.302c-101.314 14.212-180.060 101.62-180.060 206.662z" />
<glyph unicode="&#xe036;" d="M886.436 469.33c-3.666 68.414-25.354 133.448-63.088 189.44l-51.466-51.476c25.272-41.564 40.038-88.638 43.294-137.974h-114.228l142.224-165.908 142.224 165.918h-98.96zM510.31 754.442c58 0 113.5-16.108 161.506-46.070l51.364 51.364c-62.208 42.742-135.752 65.812-212.87 65.812-72.796 0-140.81-20.818-198.502-56.73l51.906-51.906c43.552 23.912 93.512 37.53 146.596 37.53zM207.206 672.308c-46.306-62.608-73.768-139.97-73.8-223.652 0-78.858 24.402-152.116 65.986-212.696l51.354 51.344c-29.256 46.868-46.224 102.154-46.224 161.362 0.020 64.030 19.856 123.514 53.638 172.698l-50.954 50.944zM510.3 142.94h-0.052c-57.938 0-112.18 16.22-158.402 44.318l-51.436-51.436c60.016-40.376 132.218-63.99 209.838-63.99h0.062c83.672 0 160.962 27.526 223.54 73.84l-50.944 50.936c-49.152-33.772-108.576-53.668-172.606-53.668zM863.97 156.334l-301.692 301.69 291.676 291.666-40.264 40.224-291.654-291.656-301.722 301.742-40.172-40.284 301.68-301.68-311.716-311.696 40.204-40.284 311.736 311.746 301.7-301.69z" />
<glyph unicode="&#xe037;" d="M813.118 203.736v-94.178h-50.718v94.178h-94.064v50.648h94.064v94.106h50.718v-94.106h94.156v-50.648h-94.156zM591.596 113.776h-348.262v504.884h163.564l-0.002 163.554h277.33v-350.598c21.904 11.224 45.844 19.006 71.116 22.62l0.002 399.094h-391.63l-191.488-191.498v-619.162h485.058c-26.644 18.698-49.1 42.946-65.688 71.106z" />
<glyph unicode="&#xe038;" d="M757.78 230.718v-94.178h-50.718v94.178h-94.096v50.636h94.086v94.116h50.718v-94.116h94.136v-50.636h-94.126zM504.894 256c0 125.686 101.908 227.554 227.554 227.554 71.976 0 136.080-33.434 177.776-85.566v269.046h-548.444l-56.484 99.554-191.52-0.002v-637.174h429.558c-24.268 36.19-38.44 79.73-38.44 126.588z" />
<glyph unicode="&#xe039;" d="M732.836 748.492l-220.836-220.846-220.846 220.846-79.646-79.646 220.846-220.846-220.846-220.836 79.646-79.636 220.836 220.836 220.846-220.856 79.656 79.656-220.856 220.846 220.856 220.826z" />
<glyph unicode="&#xe03a;" d="M615.526 255.028l-169.298 97.752 273.674 473.998 169.288-97.752-273.664-473.998zM587.858 204.974l-169.246 97.72-13.096-218.194 182.342 120.474zM368.64 110.080h-225.28v-51.2h225.28v51.2z" />
<glyph unicode="&#xe03b;" d="M924.436 448l-199.096 170.66v-135.106h-177.776v177.776h135.096l-170.66 199.106-170.67-199.106h135.116v-177.776h-177.776v135.106l-199.116-170.66 199.116-170.66v135.096h177.776v-177.776h-135.116l170.67-199.096 170.66 199.096h-135.096v177.776h177.776v-135.096z" />
<glyph unicode="&#xe03c;" d="M938.66 447.416c0 0-171.796-296.438-426.69-296.438-254.936 0-426.63 296.438-426.63 296.438s171.694 297.584 426.63 297.584c254.894 0 426.69-297.584 426.69-297.584zM720.968 447.416c0 114.862-94.168 208.916-208.998 208.916-114.892 0-208.936-94.054-208.936-208.916s94.054-208.916 208.936-208.916c114.83 0 208.998 94.064 208.998 208.916zM511.97 541.552c-51.466 0-92.968-43.746-92.968-94.126 0-51.364 41.502-92.98 92.968-92.98 50.392 0 94.034 41.616 94.034 92.98 0 50.372-43.644 94.126-94.034 94.126z" />
<glyph unicode="&#xe03d;" d="M867.564 724.306l-153.222 153.222h-313.282v-210.494h-244.614v-648.57h466.494v210.502h244.624v495.34zM566.056 75.356h-352.726v534.784h187.72v-381.174h165.008l-0.002-153.61zM810.66 285.86h-352.716v534.774h221.86v-130.868h130.856v-403.906z" />
<glyph unicode="&#xe03e;" d="M714.394 667.536h-47.708v150.876h-133.080v1.73c0 27.618-22.466 50.074-50.084 50.074h-142.182c-27.608 0-50.084-22.456-50.084-50.074v-1.73h-133.068v-650.762h242.892v-148.696h466.472l0.002 495.35-153.16 153.232zM211.59 221.062v543.948h87.542c8.888-13.998 24.442-23.378 42.21-23.378h142.19c17.766 0 33.32 9.38 42.21 23.378h87.542v-97.464h-212.204v-446.484h-189.49zM810.65 75.848h-352.666v534.794h221.86v-130.856h130.806v-403.938z" />
<glyph unicode="&#xe03f;" d="M842.404 772.28h-313.282v-648.56h466.432v495.34l-153.15 153.22zM586.004 180.614v534.772h221.85v-130.856h130.816v-403.916h-352.666zM341.72 772.28h-313.274v-648.56h466.494v495.34l-153.22 153.22zM85.33 180.614v534.772h221.85v-130.856h130.878v-403.916h-352.728z" />
<glyph unicode="&#xe040;" d="M512 734.72c-158.372 0-286.72-128.358-286.72-286.72s128.358-286.72 286.72-286.72c158.26 0 286.72 128.348 286.72 286.72s-128.46 286.72-286.72 286.72zM563.2 273.92h-102.4v348.16h102.4v-348.16z" />
<glyph unicode="&#xe041;" d="M1024 622.080v-71.68h-107.52v-107.52h-71.68v107.52h-64.994c12.186-31.816 18.914-66.314 18.914-102.4 0-158.372-128.46-286.72-286.72-286.72-158.372 0-286.72 128.348-286.72 286.72s128.358 286.72 286.72 286.72c92.816 0 175.34-44.176 227.748-112.64h105.052v107.52h71.68v-107.52h107.52zM563.2 622.080h-102.4v-348.16h102.4v348.16z" />
<glyph unicode="&#xe042;" d="M512 734.72c-158.372 0-286.72-128.358-286.72-286.72s128.358-286.72 286.72-286.72c158.26 0 286.72 128.348 286.72 286.72s-128.46 286.72-286.72 286.72zM686.080 499.2v-102.4h-348.16v102.4h348.16z" />
<glyph unicode="&#xe043;" d="M413.388 381.614l-102 380.692 518.052-65.198-416.052-315.494zM439.89 62.802l-189.112 705.914c-4.556 16.886-20.674 27.454-35.718 23.398-15.166-4.056-23.778-21.228-19.282-38.114l185.222-691.2 58.89 0.002z" />
<glyph unicode="&#xe044;" d="M829.43 697.118l-518.052 65.188 102-380.692zM215.050 792.116c-15.166-4.056-23.778-21.238-19.282-38.124l185.222-691.19h58.89l-189.112 705.926c-4.558 16.884-20.664 27.442-35.718 23.388zM838.104 238.92l-30.178 30.156-75.48-75.468-75.458 75.448-30.106-30.136 75.418-75.438-75.366-75.366 30.116-30.198 75.406 75.396 75.428-75.458 30.106 30.228-75.376 75.366z" />
<glyph unicode="&#xe045;" d="M832 356.158v-114.382h-640v412.438h321.72v71.116h-392.836v-554.65h782.232v185.478zM936.5 590.224l-199.108 170.67v-135.138c-129.25-6.482-378.102-48.558-470.702-269.598h78.808c85.156 157.164 283.238 191.334 391.896 197.888v-134.492l199.106 170.67z" />
<glyph unicode="&#xe046;" d="M342.436 448.716l168.848 170.312-168.848 170.302-171.766-170.302zM342.436 106.66l168.848 171.776-168.848 168.786-171.766-170.282zM681.564 448.716l171.766 170.312-171.766 170.302-168.786-170.302zM757.78 202.28v-94.198h-50.718v94.198h-94.064v50.636h94.064v94.096h50.718v-94.096h94.156v-50.636h-94.156z" />
<glyph unicode="&#xe047;" d="M757.78 422.718v-94.178h-50.718v94.178h-94.064v50.636h94.064v94.116h50.718v-94.116h94.156v-50.636h-94.156zM504.894 448c0 71.496 33.024 135.27 84.592 176.978l-79.708 79.022-253.778-256 253.778-256 79.698 79.022c-51.568 41.708-84.582 105.472-84.582 176.978z" />
<glyph unicode="&#xe048;" d="M654.224 483.554h-199.118v135.106l-199.106-170.66 199.106-170.66v135.096h199.118zM732.436 732.436h71.118v-568.882h-71.118z" />
<glyph unicode="&#xe049;" d="M767.99 448l-199.106 170.66v-135.106h-199.118v-71.118h199.118v-135.096zM220.426 732.436h71.118v-568.882h-71.118z" />
<glyph unicode="&#xe04a;" d="M793.334 262.4v-94.208h-50.718v94.208h-94.054v50.616h94.054v94.126h50.718v-94.116h94.168v-50.616h-94.168zM540.436 287.662c0 121.118 94.658 220.058 213.944 227.124l4.904 2.816-48.558 84.020-148.89-86.016 0.002 172h-97.004v-172.002l-148.94 86.016-48.558-84.020 148.952-85.996-148.952-85.976 48.558-84.040 148.94 85.996v-171.98h97.004v15.75c-13.702 29.246-21.402 61.87-21.402 96.308z" />
<glyph unicode="&#xe04b;" d="M648.55 252.058v50.636h238.94v-50.636h-238.94zM648.55 262.4v50.616h238.94v-50.616h-238.94zM540.426 287.662c0 121.118 94.658 220.058 213.944 227.124l4.904 2.816-48.558 84.020-148.89-86.016 0.002 172h-97.004v-172.002l-148.94 86.016-48.558-84.020 148.952-85.996-148.952-85.976 48.558-84.040 148.94 85.996v-171.98h97.004v15.75c-13.702 29.246-21.402 61.87-21.402 96.308z" />
<glyph unicode="&#xe04c;" d="M803.564 42.68h-291.564v71.096h220.436v668.438h-220.436v71.116h291.564zM568.894 448l-199.118 170.66v-135.106h-199.106v-71.118h199.106v-135.096z" />
<glyph unicode="&#xe04d;" d="M511.99 42.68h-291.564v810.65h291.564v-71.116h-220.436v-668.438h220.436zM853.32 448l-199.106 170.66v-135.106h-199.118v-71.118h199.118v-135.096z" />
<glyph unicode="&#xe04e;" d="M832 99.554h-640v234.67h71.116v-163.564h497.768v163.564h71.116zM682.67 590.224l-170.67 199.106-170.67-199.106h135.106v-199.128h71.128v199.128z" />
<glyph unicode="&#xe04f;" d="M832 99.554h-640v234.67h71.116v-163.564h497.768v163.564h71.116zM547.564 590.224v199.106h-71.128v-199.106h-135.106l170.67-199.128 170.67 199.128z" />
<glyph unicode="&#xe050;" d="M270.234 746.67v-142.234h-142.234v-455.108h625.766v142.236h142.234v455.106h-625.766zM696.894 206.224h-512.010v256h85.35v-170.66h426.66v-85.34zM839.116 348.436h-512.010v256h512.010v-256z" />
<glyph unicode="&#xe051;" d="M739.564 547.554v-71.118h-128v71.118h-199.128v-71.118h-199.106v170.67h71.106v199.118h-199.106v-199.118h71.106v-526.212h256v-71.118h199.128v199.118h-199.128v-71.118h-199.106v241.788h199.106v-71.128h199.128v71.128h128v-71.128h199.106v199.118z" />
<glyph unicode="&#xe052;" d="M156.436 775.106h711.118v-85.33h-711.118zM156.436 206.224h711.118v-85.33h-711.118zM156.436 490.66h711.118v-85.32h-711.118z" />
<glyph unicode="&#xe053;" d="M156.436 803.554h284.448v-284.458h-284.448zM583.106 803.554h284.448v-284.458h-284.448zM156.436 376.894h284.448v-284.448h-284.448zM583.106 376.894h284.448v-284.448h-284.448z" />
<glyph unicode="&#xe054;" d="M592.394 367.586c-96.39-96.338-253.174-96.286-349.502 0.052-96.276 96.296-96.276 253.082 0.052 349.46 96.276 96.308 253.062 96.308 349.45 0 96.276-96.38 96.39-253.154 0-349.512zM301.168 658.862c-64.276-64.276-64.276-168.776 0-232.94 64.216-64.276 168.766-64.276 232.94-0.092 64.276 64.246 64.216 168.806 0 233.032s-168.714 64.194-232.94 0zM853.33 194.028l-87.388-87.388-174.664 174.724 87.338 87.388z" />
<glyph unicode="&#xe055;" d="M384 675.554v-455.118l256 227.564z" />
<glyph unicode="&#xe056;" d="M739.564 320h-455.128l227.564 256z" />
<glyph unicode="&#xe057;" d="M284.436 576h455.128l-227.564-256z" />
<glyph unicode="&#xe058;" d="M640 675.554v-455.118l-256 227.564z" />
<glyph unicode="&#xe059;" d="M398.224 305.776c0 0 0 0 0 0 0-62.837 50.939-113.776 113.776-113.776 62.837 0 113.776 50.939 113.776 113.776 0 0 0 0 0 0 0 0 0 0 0 0 0 62.837-50.939 113.776-113.776 113.776-62.837 0-113.776-50.939-113.776-113.776 0 0 0 0 0 0z" />
<glyph unicode="&#xe05a;" d="M256 704h512v-512h-512z" />
<glyph unicode="&#xe05b;" d="M398.224 419.564h227.562v-227.564h-227.562z" />
<glyph unicode="&#xe05c;" d="M147.906 320h2161.778v-28.436h-2161.778z" horiz-adv-x="2456" />
<glyph unicode="&#xe05d;" d="M312.894 789.33v-682.67l398.212 341.34z" />
<glyph unicode="&#xe05e;" d="M853.33 248.894h-682.66l341.33 398.212z" />
<glyph unicode="&#xe05f;" d="M170.67 647.106h682.66l-341.33-398.212z" />
<glyph unicode="&#xe060;" d="M711.106 789.33v-682.67l-398.212 341.34z" />
<glyph unicode="&#xe061;" d="M652.216 662.15l-168.96-292.67-106.68 113.796-41.492-38.9 159.098-169.75 202.424 350.628z" />
<glyph unicode="&#xe062;" d="M696.606 625.254l-202.424-350.628-159.098 169.75 41.502 38.902 106.68-113.798 168.96 292.67c-40.284 26.428-88.442 41.85-140.226 41.85-141.332 0-256-114.606-256-256 0-141.404 114.668-256 256-256 141.394 0 256 114.596 256 256 0 68.824-27.198 131.246-71.394 177.254z" />
<glyph unicode="&#xe063;" d="M542.598 561.848l-14.112-222.566h-44.594l-14.112 222.566zM474.778 298.312h62.822v-60.54h-62.822z" />
<glyph unicode="&#xe064;" d="M512 716.186l-312.894-536.372h625.766l-312.872 536.372zM542.598 561.848l-14.112-222.566h-44.596l-14.11 222.566h72.818zM537.6 237.772h-62.822v60.538l62.822 0.002v-60.54z" />
<glyph unicode="&#xe065;" d="M541.778 371.578h-59.166v237.138h59.166v-237.138zM542.238 331.070h-60.538v-48.25h60.538v48.25z" />
<glyph unicode="&#xe066;" d="M512 704c-141.342 0-256-114.606-256-256s114.658-256 256-256c141.394 0 256 114.606 256 256s-114.606 256-256 256zM482.612 608.716h59.166v-237.138h-59.166v237.138zM542.238 282.818h-60.538v48.25h60.538v-48.25z" />
<glyph unicode="&#xe067;" d="M482.612 519.956h59.166v-237.138h-59.166zM481.7 608.716h60.538v-48.25h-60.538z" />
<glyph unicode="&#xe068;" d="M512 704c-141.342 0-256-114.606-256-256s114.658-256 256-256c141.394 0 256 114.606 256 256s-114.606 256-256 256zM541.778 282.818h-59.166v237.138h59.166v-237.138zM542.238 560.466h-60.538v48.25h60.538v-48.25z" />
<glyph unicode="&#xe069;" d="M600.454 523.284c0 57.804-44.596 91.034-96.030 91.034-52.798 0-95.58-34.59-95.58-91.034h59.166c0 20.94 12.288 37.776 36.414 37.776 22.754 0 36.864-15.934 36.864-37.324 0-10.014-5.918-20.93-13.2-30.494l-33.68-43.244c-11.838-15.472-17.296-27.76-17.296-47.34v-13.65h59.166v9.564c0 7.742 3.646 17.286 8.202 23.214l33.68 44.606c12.728 16.834 22.294 34.128 22.294 56.892zM475.29 348.048h62.802v-60.54h-62.802z" />
<glyph unicode="&#xe06a;" d="M768 448c0-141.394-114.606-256-256-256-141.332 0-256 114.606-256 256s114.668 256 256 256c141.394 0 256-114.606 256-256zM600.454 523.284c0 57.804-44.596 91.034-96.030 91.034-52.798 0-95.58-34.59-95.58-91.034h59.166c0 20.94 12.288 37.776 36.414 37.776 22.754 0 36.864-15.934 36.864-37.324 0-10.014-5.918-20.93-13.2-30.494l-33.68-43.244c-11.838-15.472-17.296-27.76-17.296-47.34v-13.65h59.166v9.564c0 7.742 3.646 17.286 8.202 23.214l33.68 44.606c12.728 16.834 22.294 34.128 22.294 56.892zM538.092 287.508v60.538h-62.802v-60.538h62.802z" />
<glyph unicode="&#xe06b;" d="M881.776 78.224h-739.552v739.552h739.554l-0.002-739.552zM199.116 135.106h625.766l0.002 625.788h-625.766l-0.002-625.788z" />
<glyph unicode="&#xe06c;" d="M142.224 817.776v-739.564h739.554l-0.002 739.564h-739.552zM824.884 135.106h-332.636l314.398 529.602-97.844 58.082-262.042-441.406-128.214 159.826-88.75-71.198 188.468-234.896h-219.158v625.778h625.776l0.002-625.788z" />
<glyph unicode="&#xe06d;" d="M460.78 82.114l-230.994 287.898 88.75 71.198 128.236-159.826 262.030 441.406 97.834-58.080z" />
<glyph unicode="&#xe06e;" d="M682.67 448c0-94.28-76.39-170.67-170.67-170.67-94.218 0-170.66 76.39-170.66 170.67s76.432 170.67 170.66 170.67c94.28 0 170.67-76.39 170.67-170.67z" />
<glyph unicode="&#xe06f;" d="M512 78.224c-203.898 0-369.776 165.878-369.776 369.776s165.878 369.776 369.776 369.776 369.776-165.878 369.776-369.776c0-203.898-165.878-369.776-369.776-369.776zM512 760.894c-172.534 0-312.894-140.36-312.894-312.894s140.36-312.894 312.894-312.894 312.894 140.36 312.894 312.894-140.36 312.894-312.894 312.894z" />
<glyph unicode="&#xe070;" d="M512 78.224c-203.898 0-369.776 165.878-369.776 369.776s165.878 369.776 369.776 369.776 369.776-165.878 369.776-369.776c0-203.898-165.878-369.776-369.776-369.776zM512 760.894c-172.534 0-312.894-140.36-312.894-312.894s140.36-312.894 312.894-312.894 312.894 140.36 312.894 312.894-140.36 312.894-312.894 312.894zM682.66 448c0-94.28-76.38-170.67-170.66-170.67-94.218 0-170.67 76.39-170.67 170.67s76.452 170.67 170.67 170.67c94.28 0 170.66-76.39 170.66-170.67z" />
<glyph unicode="&#xe071;" d="M403.61 187.596c-54.374 0-109.2 29.030-109.2 102.758h75.56c0-23.040 14.746-34.56 33.638-34.56 19.814 0 33.638 11.52 33.638 35.020 0 19.814-14.746 34.56-35.020 34.56h-10.598v65.424h10.598c22.58 0 31.334 16.128 31.334 30.884 0 20.726-14.284 31.334-29.952 31.334s-29.952-11.060-29.952-30.874h-75.572c0 61.748 47.002 99.062 105.524 99.062 60.816 0 105.524-40.55 105.524-97.228 0-35.942-17.51-53.452-34.1-64.052 17.972-12.442 37.786-32.246 37.786-71.424 0.002-68.636-51.608-100.904-109.208-100.904zM633.548 190.362v247.438l-70.042-60.826v80.64l70.042 60.816h75.56l0.002-328.068h-75.562zM829.44 796.16v-56.32c0-33.884-27.556-61.44-61.44-61.44s-61.44 27.556-61.44 61.44v56.32h-389.12v-56.32c0-33.884-27.556-61.44-61.44-61.44s-61.44 27.556-61.44 61.44v56.32h-133.12v-737.28h901.12v737.28h-133.12zM901.12 120.32h-778.24v471.040h778.24v-471.040zM256 883.2c-16.936 0-30.72-13.784-30.72-30.72v-112.64c0-16.936 13.784-30.72 30.72-30.72s30.72 13.784 30.72 30.72v112.64c0 16.936-13.784 30.72-30.72 30.72zM768 883.2c-16.936 0-30.72-13.784-30.72-30.72v-112.64c0-16.936 13.784-30.72 30.72-30.72s30.72 13.784 30.72 30.72v112.64c0 16.936-13.784 30.72-30.72 30.72z" />
<glyph unicode="&#xe072;" d="M284.446 561.776h455.118l-85.34-455.106h-284.448zM715.304 689.858l-93.582 34.058 9.718 26.728-133.602 48.66-9.738-26.748-93.574 34.060-82.636-60.724 427.674-155.668z" />
<glyph unicode="&#xe073;" d="M682.66 448c0-94.28-76.442-170.67-170.66-170.67-94.248 0-170.67 76.39-170.67 170.67s76.422 170.67 170.67 170.67c94.218 0 170.66-76.39 170.66-170.67z" />
<glyph unicode="&#xe074;" d="M849.92 448h-112.64v225.28h-225.28v112.64h337.92zM501.76 99.84h-337.92v337.92h112.64v-225.28h225.28z" />
<glyph unicode="&#xe075;" d="M481.28 79.36h-112.64v225.28h-225.28v112.64h337.92zM880.64 478.72h-337.92v337.92h112.64v-225.28h225.28z" />
<glyph unicode="&#xe076;" d="M583.106 868.28v-174.5c18.392-5.336 36.004-12.564 52.45-21.638l123.382 123.362c-51.374 36.548-111.104 61.86-175.832 72.776z" />
<glyph unicode="&#xe077;" d="M736.102 571.586c9.124-16.446 16.344-34.058 21.678-52.48h174.5c-10.916 64.748-36.218 124.478-72.838 175.832l-123.34-123.352z" />
<glyph unicode="&#xe078;" d="M757.77 376.894c-5.336-18.422-12.554-36.004-21.658-52.47l123.392-123.34c36.546 51.364 61.89 111.094 72.766 175.81h-174.5z" />
<glyph unicode="&#xe079;" d="M635.556 223.856c-16.436-9.082-34.038-16.302-52.44-21.638v-174.5c64.716 10.916 124.436 36.218 175.82 72.806l-123.38 123.332z" />
<glyph unicode="&#xe07a;" d="M440.894 202.22c-18.422 5.336-36.004 12.564-52.47 21.668l-123.362-123.362c51.364-36.588 111.114-61.89 175.832-72.806v174.5z" />
<glyph unicode="&#xe07b;" d="M287.856 324.444c-9.082 16.446-16.302 34.028-21.626 52.45h-174.5c10.874-64.716 36.218-124.446 72.766-175.81l123.36 123.36z" />
<glyph unicode="&#xe07c;" d="M266.22 519.106c5.336 18.422 12.564 36.004 21.668 52.48l-123.392 123.33c-36.546-51.364-61.89-111.084-72.776-175.8h174.5z" />
<glyph unicode="&#xe07d;" d="M388.444 672.144c16.446 9.082 34.028 16.302 52.45 21.638v174.498c-64.728-10.916-124.446-36.23-175.842-72.806l123.392-123.33z" />
<glyph unicode="&#xe07e;" d="M287.856 324.444c-9.082 16.446-16.302 34.028-21.638 52.45h-174.498c10.886-64.716 36.23-124.446 72.776-175.81l123.36 123.36zM266.22 519.106c5.336 18.422 12.564 36.004 21.668 52.48l-123.392 123.33c-36.546-51.364-61.89-111.084-72.776-175.8h174.5zM388.454 672.144c16.436 9.082 34.028 16.302 52.44 21.638v174.498c-64.716-10.916-124.436-36.23-175.832-72.806l123.392-123.33zM583.106 868.28v-174.5c18.392-5.336 36.004-12.564 52.45-21.638l123.392 123.362c-51.384 36.548-111.104 61.86-175.842 72.776zM757.78 376.894c-5.336-18.422-12.564-36.004-21.668-52.47l123.392-123.34c36.556 51.364 61.89 111.094 72.776 175.81h-174.5zM440.894 202.22c-18.412 5.336-36.004 12.564-52.47 21.668l-123.362-123.362c51.364-36.588 111.114-61.89 175.832-72.806v174.5zM736.112 571.586c9.114-16.446 16.344-34.058 21.668-52.48h174.5c-10.916 64.748-36.218 124.478-72.826 175.832l-123.342-123.352zM635.556 223.856c-16.446-9.082-34.028-16.302-52.45-21.638v-174.5c64.728 10.916 124.446 36.218 175.842 72.806l-123.392 123.332z" />
<glyph unicode="&#xe07f;" d="M884.204 429.282v-66.908h-37.836v66.908h-66.918v37.836h66.918v66.508h37.836v-66.508h66.898v-37.836h-66.898zM284.446 448c0 0 0 0 0 0 0-125.675 101.879-227.554 227.554-227.554 125.675 0 227.554 101.879 227.554 227.554 0 0 0 0 0 0 0 0 0 0 0 0 0 125.675-101.879 227.554-227.554 227.554-125.675 0-227.554-101.879-227.554-227.554s0 0 0 0z" />
<glyph unicode="&#xe080;" d="M284.436 448c0-125.68 101.884-227.564 227.564-227.564s227.564 101.884 227.564 227.564c0 125.68-101.884 227.564-227.564 227.564-125.68 0-227.564-101.884-227.564-227.564z" />
<glyph unicode="&#xe081;" d="M423.896 67.892l-275.888 343.868 88.752 71.2 173.116-215.788 338.034 569.396 97.842-58.082z" />
<glyph unicode="&#xe082;" d="M833.844 689.336l-80.508 80.496-241.356-241.366-241.378 241.366-80.434-80.444 241.356-241.358-241.356-241.366 80.496-80.508 241.356 241.378 241.358-241.378 80.466 80.466-241.368 241.338z" />
<glyph unicode="&#xe083;" d="M512 817.776c-204.216 0-369.776-165.56-369.776-369.776s165.56-369.776 369.776-369.776 369.776 165.56 369.776 369.776-165.56 369.776-369.776 369.776zM512 192c-141.394 0-256 114.566-256 256 0 141.332 114.606 256 256 256s256-114.668 256-256c0-141.434-114.606-256-256-256zM512 576l170.67-199.106h-85.34l-85.33 99.552-85.33-99.554h-85.33l170.66 199.108z" />
<glyph unicode="&#xe084;" d="M516.598 150.968c-254.946 0-426.67 296.448-426.67 296.448s171.724 297.606 426.67 297.606v-88.668c-114.892 0-208.948-94.054-208.948-208.948 0-114.832 94.064-208.886 208.948-208.886v-87.552zM519.464 352.144c21.166 0 40.284 6.452 57.282 19.312l166.86-99.614c-0.83-3.308-1.28-8.314-1.28-14.982 0-26.552 9.472-49.162 28.364-67.83s41.39-27.996 67.502-27.996c26.174 0 48.702 9.328 67.594 27.996 18.862 18.668 28.304 41.216 28.304 67.564 0 26.328-9.442 48.856-28.304 67.554-18.892 18.668-41.42 27.996-67.594 27.996-21.156 0.42-40.664-6.216-58.502-19.938l-166.83 100.25c1.67 7.076 2.498 12.36 2.498 15.862 0 3.554-0.83 8.612-2.498 15.278l166.83 98.98c18.668-12.472 38.174-18.698 58.502-18.698 26.174 0 48.702 9.328 67.594 28.026 18.862 18.698 28.304 41.196 28.304 67.554 0 26.368-9.442 48.866-28.304 67.532-18.892 18.698-41.42 28.026-67.594 28.026-26.112 0-48.61-9.442-67.502-28.334s-28.364-41.39-28.364-67.554c0-6.616 0.45-11.612 1.28-14.92l-166.86-100.884c-16.168 13.722-35.276 20.552-57.282 20.552-26.112 0-48.61-9.442-67.532-28.334-18.862-18.832-28.334-41.39-28.334-67.502 0-26.174 9.472-48.67 28.334-67.564 18.914-18.882 41.42-28.332 67.532-28.332z" />
<glyph unicode="&#xe085;" d="M814.9 414.802l95.304 41.698-68.404 211.846-103.198-18.996c-29.204 31.498-65.004 57.252-104.396 74.046l-10.998 103.198h-223.356l-13.496-104.346c-39.25-17.95-74.004-42.548-102.104-73.902l-101.048 19.998-69.396-210.648 94.096-44.902c4.648-43.848 18.146-86.406 40.55-123.504l-50.504-88.596 179.496-131.298 71.752 76.298c43.796-9 87.45-9 127.898 0l69.498-76.298 180.602 130.1-50.402 92.098c21.302 37.11 34.706 78.602 38.106 123.208zM512.052 248.904c-110.346 0-199.148 88.504-199.148 199.004 0 110.552 88.802 199.198 199.148 199.198 110.552 0 199.046-88.648 199.046-199.198-0.002-110.51-88.496-199.004-199.046-199.004zM512 570.512l170.7-199.168h-85.35l-85.35 99.574-85.35-99.564h-85.3l170.65 199.158z" />
<glyph unicode="&#xe086;" d="M819.2 504.32h-250.88v250.88h-112.64v-250.88h-250.88v-112.64h250.88v-250.88h112.64v250.88h250.88z" />
<glyph unicode="&#xe087;" d="M230.4 842.24v-788.48h563.2v788.48h-563.2zM680.96 248.32h-337.92v71.68h337.92v-71.68zM680.96 412.16h-337.92v71.68h337.92v-71.68zM680.96 576h-337.92v71.68h337.92v-71.68z" />
<glyph unicode="&#xe088;" d="M106.66 274.309v238.828c0 21.217 7.997 39.895 24.115 56.003 16.056 16.056 34.755 24.105 56.003 24.105h150.917v-247.388h286.996v-71.547c0-22.344-7.66-41.062-22.938-56.392-15.36-15.278-34.109-22.886-56.392-22.886h-170.66l-148.234-148.275v148.275h-39.69c-21.248 0-39.936 7.608-56.003 22.886-16.118 15.329-24.115 34.048-24.115 56.392zM400.108 408.361v318.106c0 21.228 7.895 39.895 23.726 56.003 15.8 16.056 34.355 24.115 55.634 24.115h358.564c22.282 0 41.052-8.059 56.392-24.115 15.268-16.108 22.907-34.775 22.907-56.003v-238.828c0-22.344-7.639-41.062-22.907-56.392-15.34-15.278-34.109-22.886-56.392-22.886h-39.7v-148.275l-148.193 148.275h-250.030z" />
<glyph unicode="&#xe089;" d="M511.652 734.72c52.224 0 94.976-42.742 94.976-94.884 0-52.172-42.752-94.372-94.976-94.372-52.112 0-94.29 42.2-94.29 94.372 0.010 52.142 42.178 94.884 94.29 94.884zM307.2 444.17c0-52.172 42.138-94.342 94.31-94.342s94.914 42.168 94.914 94.342c0 52.172-42.742 94.914-94.914 94.914-52.172 0.012-94.31-42.74-94.31-94.914zM527.544 444.17c0-52.172 42.2-94.342 94.372-94.342 52.152 0 94.894 42.168 94.894 94.342 0 52.172-42.742 94.914-94.894 94.914-52.172 0.012-94.372-42.74-94.372-94.914zM834.56 273.92v296.96h-71.68v-296.96c0-41.062-25.498-66.56-66.56-66.56h-368.64c-41.052 0-66.56 25.498-66.56 66.56v296.96h-71.68v-296.96c0-80.098 58.142-138.24 138.24-138.24h368.64c80.098 0 138.24 58.142 138.24 138.24z" />
<glyph unicode="&#xe08a;" d="M273.214 709.12l56.31-99.206h522.956v-423.034h-680.96v522.24h101.694zM306.012 765.44h-190.812v-634.88h793.6v535.686h-546.488l-56.3 99.194z" />
<glyph unicode="&#xe08b;" d="M273.214 709.12l56.31-99.206h522.956v-423.034h-680.96v522.24h101.694zM306.012 765.44h-190.812v-634.88h793.6v535.686h-546.488l-56.3 99.194zM433.152 397.148l78.51 79.186-78.51 79.186-79.872-79.176 79.872-79.196zM433.152 238.080l78.51 79.902-78.51 78.48-79.872-79.206 79.872-79.176zM590.858 397.148l79.862 79.186-79.862 79.186-78.52-79.176 78.52-79.196zM590.858 238.080l79.862 79.166-79.862 79.206-78.52-78.48 78.52-79.892z" />
<glyph unicode="&#xe08c;" d="M480.184 255.028l-169.298 97.752 273.664 473.998 169.288-97.752-273.654-473.998zM452.506 204.974l-169.248 97.72-13.096-218.194 182.344 120.474z" />
<glyph unicode="&#xe08d;" d="M614.4 192h-358.4v358.4h122.88v-235.52h235.52zM768 69.12h-122.88v512h-512v122.88h634.88zM798.72 314.88h92.16v-122.88h-92.16zM256 826.88h122.88v-92.16h-122.88z" />
<glyph unicode="&#xe08e;" d="M763.576 624.25c-10.168 14.458-21.556 28.212-34.314 40.97-58.010 58.020-135.168 89.98-217.262 89.98-169.298 0-307.108-137.81-307.2-307.22 0-169.38 137.81-307.18 307.2-307.18v102.4c-112.926 0-204.8 91.864-204.8 204.748 0.062 112.958 91.934 204.852 204.8 204.852 54.744 0 106.178-21.3 144.866-59.976 8.5-8.5 15.994-17.704 22.774-27.34l-116.88-81.848 276.838-56.176 41.902 279.368-117.924-82.578z" />
<glyph unicode="&#xe08f;" d="M260.424 624.25c10.168 14.458 21.556 28.212 34.314 40.97 58.010 58.020 135.168 89.98 217.262 89.98 169.298 0 307.098-137.81 307.2-307.22 0-169.38-137.81-307.18-307.2-307.18v102.4c112.916 0 204.8 91.864 204.8 204.748-0.062 112.958-91.944 204.852-204.8 204.852-54.744 0-106.178-21.3-144.866-59.976-8.5-8.5-15.994-17.704-22.774-27.34l116.88-81.838-276.838-56.176-41.902 279.368 117.924-82.588z" />
<glyph unicode="&#xe090;" d="M870.4 734.72l-327.68-286.72 327.68-286.72v573.44zM870.4 161.28v573.44l-327.68-286.72zM204.8 621.886l198.728-173.886-198.728-173.886v347.772zM153.6 734.72v-573.44l327.68 286.72-327.68 286.72z" />
<glyph unicode="&#xe091;" d="M798.72 89.6l-286.72 327.68-286.72-327.68h573.44zM225.28 89.6h573.44l-286.72 327.68zM685.876 755.2l-173.876-198.728-173.886 198.728h347.762zM798.72 806.4h-573.44l286.72-327.68 286.72 327.68z" />
<glyph unicode="&#xe092;" d="M890.88 110.080h-757.76v675.84h757.76v-675.84zM194.56 171.52h634.88v552.96h-634.88v-552.96zM547.564 284.16v122.88h-71.118v-122.88h-66.846l102.4-112.64 102.4 112.64zM614.4 611.84l-102.4 112.64-102.4-112.64h66.846v-122.88h71.118v122.88zM430.080 483.554h-122.88v66.846l-112.64-102.4 112.64-102.4v66.836h122.88zM829.44 448l-112.64 102.4v-66.846h-122.88v-71.118h122.88v-66.836z" />
<glyph unicode="&#xe093;" d="M890.88 354.908l102.4 93.092-102.4 93.092v244.828h-285.788l-93.092 102.4-93.092-102.4h-285.788v-244.828l-102.4-93.092 102.4-93.092v-244.828h285.788l93.092-102.4 93.092 102.4h285.788v244.828zM547.564 171.52v92.16h-71.116v-92.16h-281.888v240.916h92.16v71.116h-92.16v240.928h281.886v-92.16h71.116v92.16h281.878v-240.926h-92.16v-71.116h92.16v-240.918h-281.876z" />
<glyph unicode="&#xe094;" d="M890.88 110.080h-757.76v675.84h757.76v-675.84zM194.56 171.52h634.88v552.96h-634.88v-552.96zM333.404 293.632v230.984l-65.382-56.78v75.284l65.382 56.78h70.544v-306.268h-70.544zM474.88 402.462v77.434h77.434v-77.434h-77.434zM474.88 293.632v77.434h77.434v-77.434h-77.434zM644.352 293.632v230.984l-65.392-56.78v75.284l65.392 56.78h70.544v-306.268h-70.544z" />
<glyph unicode="&#xe095;" d="M471.040 663.040h81.92v-430.080h-81.92zM942.080 448l-191.488 174.080v-134.81h-136.192v-78.54h136.192v-134.81zM409.6 448l-191.488 174.080v-134.81h-136.192v-78.54h136.192v-134.81z" />
<glyph unicode="&#xe096;" d="M512.010 796.446c-179.17 0-304.026-43.1-304.026-81.786 0-38.676 124.856-81.766 304.026-81.766 179.16 0 304.006 43.090 304.006 81.766 0 38.686-124.846 81.786-304.006 81.786zM816.016 536.884v93.83c-95.754-54.846-282.276-56.484-304.006-56.484s-208.24 1.638-304.026 56.484v-93.84c0-23.152 44.79-47.882 119.162-64.010-12.052-16.18-21.976-34.008-29.492-53.054-33.054 7.998-64.502 18.708-89.672 33.116v-93.84c0-18.176 27.608-37.336 75.48-52.542 2.878-23.080 9.164-45.076 18.34-65.506-34.57 8.090-67.594 19.098-93.818 34.11v-93.818c0-38.676 124.856-81.786 304.026-81.786 179.16 0 304.006 43.11 304.006 81.786v93.818c-26.224-15.012-59.238-26.010-93.808-34.11 9.176 20.428 15.462 42.444 18.33 65.516 47.872 15.196 75.48 34.344 75.48 52.542v93.84c-25.16-14.408-56.606-25.128-89.672-33.116-7.506 19.046-17.428 36.874-29.48 53.054 74.37 16.116 119.15 40.846 119.15 64.010zM511.99 162.57c-95.416 0-172.8 77.332-172.8 172.79s77.384 172.79 172.8 172.79c95.458 0 172.82-77.332 172.82-172.79s-77.362-172.79-172.82-172.79zM490.834 415.55v33.73h42.322v-33.73h-42.322zM491.48 221.46v165.796h41.318v-165.796h-41.318z" />
<glyph unicode="&#xe097;" d="M143.36 332.288c46.796 26.818 70.206 65.434 70.206 115.712 0 44.574-23.408 80.322-70.206 107.152 6.84 24.576 16.866 49.162 29.992 73.758 43.366-10.322 83.026 2.54 119.020 38.584 31.396 31.416 41.37 71.138 29.962 119.132 24.546 13.138 48.518 23.152 71.916 30.024 29.112-46.848 68.27-70.308 117.278-70.308 48.006 0 86.856 23.46 116.52 70.308 23.388-6.86 47.36-16.886 71.896-30.024-11.398-47.994-1.71-87.706 29.132-119.132 35.952-36.056 75.93-48.906 119.9-38.584 11.356-22.292 21.954-46.888 31.662-73.758-47.934-26.828-71.896-62.576-71.896-107.152 0-44.574 23.972-80.302 71.896-107.152-9.114-26.87-19.682-51.456-31.662-73.738-43.366 10.302-83.394-2.55-119.9-38.604-31.396-33.72-41.094-73.442-29.132-119.132-24.536-13.148-48.506-23.132-71.896-30.024-29.132 46.848-67.952 70.298-116.52 70.298-49.008 0-88.166-23.45-117.278-70.298-23.408 6.892-47.37 16.866-71.916 30.024 11.408 45.69 1.434 85.412-29.962 119.132-31.406 31.478-71.066 41.482-119.020 30.064-13.126 24.546-23.152 49.142-29.992 73.718zM512.092 232.96c119.326 0 214.948 95.662 214.948 214.938 0 119.45-95.622 215.142-214.948 215.142-119.162 0-215.132-95.692-215.132-215.142 0-119.276 95.97-214.938 215.132-214.938zM477.030 547.83v53.34h69.94v-53.34h-69.94zM477.030 294.83v220.56h69.94v-220.56h-69.94z" />
<glyph unicode="&#xe098;" d="M768 448c0-141.394-114.606-256-256-256-141.332 0-256 114.606-256 256s114.668 256 256 256c141.394 0 256-114.606 256-256z" />
<glyph unicode="&#xe099;" d="M512 145.92c-166.574 0-302.080 135.506-302.080 302.080s135.516 302.080 302.080 302.080c166.564 0 302.080-135.506 302.080-302.080s-135.506-302.080-302.080-302.080zM512 657.92c-115.752 0-209.92-94.168-209.92-209.92s94.178-209.92 209.92-209.92c115.742 0 209.92 94.168 209.92 209.92s-94.168 209.92-209.92 209.92zM512 565.76c-65.014 0-117.76-52.716-117.76-117.76 0-65.054 52.746-117.76 117.76-117.76 65.004 0 117.76 52.706 117.76 117.76 0 65.044-52.746 117.76-117.76 117.76z" />
<glyph unicode="&#xe09a;" d="M512 145.92c-166.574 0-302.080 135.506-302.080 302.080s135.516 302.080 302.080 302.080c166.564 0 302.080-135.506 302.080-302.080s-135.506-302.080-302.080-302.080zM512 657.92c-115.752 0-209.92-94.168-209.92-209.92s94.178-209.92 209.92-209.92c115.742 0 209.92 94.168 209.92 209.92s-94.168 209.92-209.92 209.92z" />
<glyph unicode="&#xe09b;" d="M732.16 355.84v107.52h-204.8v76.8h128v225.28h-286.72v-225.28h128v-76.8h-204.8v-107.52h-128v-225.28h286.72v225.28h-128v76.8h378.88v-76.8h-128v-225.28h286.72v225.28z" />
<glyph unicode="&#xe09c;" d="M240.466 691.088l-30.168-231.28 341.914-341.946 261.468 261.498-341.914 341.894-231.3-30.166zM401.388 530.196c-22.22-22.22-58.224-22.252-80.476 0-22.242 22.22-22.22 58.224 0 80.446 22.19 22.22 58.224 22.22 80.476 0 22.22-22.232 22.19-58.224 0-80.446z" />
<glyph unicode="&#xe09d;" d="M773.448 359.22l40.212-40.222-261.428-261.498-341.954 341.942 9.278 71.168 332.666-332.666 221.226 221.276zM471.756 781.608l341.904-341.944-261.428-261.498-341.954 341.944 30.168 231.28 231.31 30.218zM401.368 670.946c-22.252 22.22-58.246 22.22-80.466 0-22.22-22.22-22.22-58.224 0-80.446 22.22-22.22 58.246-22.22 80.466 0 22.19 22.22 22.22 58.224 0 80.446z" />
<glyph unicode="&#xe09e;" d="M512 729.6c-155.536 0-281.6-126.086-281.6-281.6s126.064-281.6 281.6-281.6c155.546 0 281.6 126.086 281.6 281.6 0 155.514-126.054 281.6-281.6 281.6zM680.98 335.39l-56.33-56.372-112.65 112.662-112.64-112.66-56.32 56.372 112.64 112.608-112.64 112.62 56.32 56.372 112.64-112.672 112.64 112.67 56.33-56.372-112.66-112.618 112.67-112.61z" />
<glyph unicode="&#xe09f;" d="M378.88 775.68h491.52v-81.92h-491.52zM378.88 202.24h491.52v-81.92h-491.52zM378.88 488.96h491.52v-81.92h-491.52zM143.36 448c0-39.588 32.092-71.68 71.68-71.68s71.68 32.092 71.68 71.68c0 39.588-32.092 71.68-71.68 71.68-39.588 0-71.68-32.092-71.68-71.68zM143.36 734.72c0-39.588 32.092-71.68 71.68-71.68s71.68 32.092 71.68 71.68c0 39.588-32.092 71.68-71.68 71.68-39.588 0-71.68-32.092-71.68-71.68zM143.36 161.28c0-39.588 32.092-71.68 71.68-71.68s71.68 32.092 71.68 71.68c0 39.588-32.092 71.68-71.68 71.68-39.588 0-71.68-32.092-71.68-71.68z" />
<glyph unicode="&#xe0a0;" d="M128.932 447.57c0 0 133.55-230.594 331.806-230.594h0.062v68.096h-0.062c-89.304 0-162.438 73.164-162.438 162.498 0 89.304 73.134 162.468 162.438 162.468h0.062v68.976h-0.062c-198.246 0-331.806-231.444-331.806-231.444zM388.464 447.57c0-39.956 32.246-72.336 72.274-72.336h0.062v145.562h-0.062c-40.028 0-72.274-34.058-72.274-73.226zM699.678 801.28h-136.478v-296.96h266.24v167.208l-129.762 129.752zM788.48 545.28h-184.32v215.040h78.562l13.598-13.598v-78.562h78.562l13.598-13.608v-109.272zM563.2 391.68v-296.96h266.24v167.198l-129.762 129.762h-136.478zM788.48 244.962v-109.282h-184.32v215.040h78.562l13.598-13.598v-78.562h78.562l13.598-13.598z" />
<glyph unicode="&#xe0a1;" d="M699.678 801.28h-136.478v-296.96h266.24v167.208l-129.762 129.752zM788.48 545.28h-184.32v215.040h78.562l13.598-13.598v-78.562h78.562l13.598-13.608v-109.272zM563.2 391.68v-296.96h266.24v167.198l-129.762 129.762h-136.478zM788.48 244.962v-109.282h-184.32v215.040h78.562l13.598-13.598v-78.562h78.562l13.598-13.598zM204.8 448c0-141.158 114.842-256 256-256v40.96c-118.58 0-215.040 96.472-215.040 215.040 0 118.58 96.46 215.040 215.040 215.040v40.96c-141.158 0-256-114.842-256-256z" />
<glyph unicode="&#xe0a2;" d="M699.678 801.28h-136.478v-296.96h266.24v167.208l-129.762 129.752zM788.48 545.28h-184.32v215.040h78.562l13.598-13.598v-78.562h78.562l13.598-13.608v-109.272zM563.2 391.68v-296.96h266.24v167.198l-129.762 129.762h-136.478zM788.48 244.962v-109.282h-184.32v215.040h78.562l13.598-13.598v-78.562h78.562l13.598-13.598zM460.8 263.68v-40.96h-194.56v583.68h-81.92l102.4 112.64 102.4-112.64h-81.92v-542.72h153.6z" />
<glyph unicode="&#xe0a3;" d="M302.387 76.861l182.333 120.494-169.216 97.679zM786.084 721.418l-169.308 97.72-130.427-225.905 143.104-143.094zM200.858 800.051l-41.687-41.687 267.858-267.878-83.917-145.347 169.277-97.751 57.733 99.994 264.223-264.264 41.748 41.687z" />
<glyph unicode="&#xe0a4;" d="M689.275 504.893v107.080c0 97.782-79.452 177.367-177.275 177.367-97.833 0-177.275-79.585-177.275-177.367v-107.080h-78.725v-398.223h512v398.223h-78.725zM405.996 611.973c0 58.532 47.503 106.25 106.004 106.25s106.004-47.718 106.004-106.25v-107.080h-212.009v107.080z" />
<glyph unicode="&#xe0a5;" d="M779.172 789.34c-97.843 0-177.275-79.585-177.275-177.367v-107.090h-345.897v-398.234h512v398.234h-94.843v107.090c0 58.532 47.503 106.25 106.015 106.25 58.501 0 106.004-47.718 106.004-106.25v-136.755h71.281v136.755c-0.010 97.782-79.452 177.367-177.285 177.367z" />
<glyph unicode="&#xe0a6;" d="M894.423 782.469c-15.34 16.056-34.109 24.115-56.392 24.115h-358.564c-21.279 0-39.834-8.059-55.634-24.115-15.831-16.108-23.726-34.775-23.726-56.003v-318.106h250.030l148.193-148.275v148.275h39.7c22.282 0 41.052 7.608 56.392 22.886 15.268 15.34 22.907 34.058 22.907 56.392v238.828c0 21.228-7.639 39.895-22.907 56.003zM743.107 519.107l-85.33 99.553-85.34-99.553h-85.33l170.67 199.107 170.66-199.107h-85.33zM280.361 305.439h-85.33l142.664 166.451v121.364h-150.917c-21.248 0-39.946-8.059-56.003-24.105-16.118-16.108-24.115-34.775-24.115-56.003v-238.828c0-22.344 7.997-41.062 24.115-56.392 16.056-15.278 34.755-22.886 56.003-22.886h39.69v-148.275l148.224 148.275h170.67c22.282 0 41.032 7.608 56.392 22.886 15.278 15.329 22.938 34.048 22.938 56.392v71.547h-309.688l-34.642-40.428z" />
<glyph unicode="&#xe0a7;" d="M782.807 824.699h-541.614c-72.694 0-127.416-52.777-127.416-127.447v-318.577c0-64.778 50.749-127.386 127.416-127.386h223.468l222.802-222.638 34.284 222.638h61.061c78.633 0 127.406 56.689 127.406 127.386v318.577c0.010 76.718-52.777 127.447-127.406 127.447zM312.893 466.278c-39.281 0-71.107 31.857-71.107 71.107s31.826 71.107 71.107 71.107c39.27 0 71.107-31.857 71.107-71.107s-31.836-71.107-71.107-71.107zM512 466.278c-39.281 0-71.107 31.857-71.107 71.107s31.826 71.107 71.107 71.107 71.107-31.857 71.107-71.107-31.826-71.107-71.107-71.107zM711.107 466.278c-39.281 0-71.107 31.857-71.107 71.107s31.826 71.107 71.107 71.107 71.107-31.857 71.107-71.107-31.826-71.107-71.107-71.107z" />
<glyph unicode="&#xe0a8;" d="M782.807 824.699h-541.614c-72.694 0-127.416-52.777-127.416-127.447v-318.577c0-64.778 50.749-127.386 127.416-127.386h223.468l222.802-222.638 34.284 222.638h61.061c78.633 0 127.406 56.689 127.406 127.386v318.577c0.010 76.718-52.777 127.447-127.406 127.447zM739.564 366.715h-455.117v56.893h455.117v-56.893zM739.564 508.948h-455.117v56.893h455.117v-56.893zM739.564 651.162h-455.117v56.893h455.117v-56.893z" />
<glyph unicode="&#xe0a9;" d="M782.807 824.699h-541.614c-74.639 0-127.416-50.729-127.416-127.447v-318.577c0-70.697 48.773-127.386 127.416-127.386h61.112l34.253-222.638 222.833 222.638h223.416c76.657 0 127.406 62.607 127.406 127.386v318.577c0.010 74.66-54.712 127.447-127.406 127.447zM824.893 378.665c0-17.48-13.056-42.056-42.076-42.056h-258.734l-128.778-128.635-8.643 56.279-11.131 72.356h-134.339c-34.775 0-42.086 22.856-42.086 42.056v318.587c0 28.723 13.394 42.107 42.086 42.107h541.614c26.358 0 42.076-15.749 42.076-42.107v-318.587zM341.33 448h85.34l85.33 99.553 85.33-99.553h85.34l-170.67 199.107z" />
<glyph unicode="&#xe0aa;" d="M782.807 824.699h-541.604c-74.639 0-127.416-50.729-127.416-127.447v-318.577c0-70.697 48.783-127.386 127.416-127.386h61.102l34.263-222.638 222.833 222.638h223.416c76.657 0 127.406 62.607 127.406 127.386v318.577c0 74.67-54.723 127.447-127.416 127.447zM824.893 378.665c0-17.48-13.056-42.056-42.076-42.056h-258.734l-128.778-128.635-8.643 56.279-11.131 72.356h-134.328c-34.775 0-42.086 22.856-42.086 42.056v318.587c0 28.723 13.394 42.107 42.086 42.107h541.614c26.358 0 42.076-15.749 42.076-42.107v-318.587zM284.436 636.938h455.117v-56.883h-455.117v56.883zM284.436 494.715h455.117v-56.883h-455.117v56.883z" />
<glyph unicode="&#xe0ab;" d="M241.777 263.107v322.396l270.223-221.082 270.223 221.082v-137.503c29.972 0 58.614-5.417 85.34-14.889v285.112h-711.117v-540.436h370.493c-0.246 4.751-0.717 9.411-0.717 14.223 0 24.689 3.697 48.497 10.22 71.107h-294.666zM705.362 632.893l-193.362-158.198-193.331 158.198h386.693zM936.53 175.145l48.579 21.166-34.888 108.052-52.552-9.667c-14.858 15.995-33.137 29.123-53.115 37.673l-5.755 52.562h-113.715l-6.861-53.166c-20.029-9.062-37.663-21.606-52.029-37.673l-51.415 10.281-35.42-107.459 47.954-22.835c2.335-22.221 9.216-44.052 20.552-62.833l-25.672-45.22 91.484-66.949 36.516 39.004c22.282-4.608 44.585-4.608 65.229 0l35.389-39.004 91.945 66.447-25.641 46.776c10.824 18.842 17.715 40.008 19.415 62.843zM782.193 104.192c-47.626 0-85.862 38.124-85.862 85.893 0 47.606 38.226 85.893 85.862 85.893 47.698 0 85.924-38.277 85.924-85.893-0.010-47.78-38.226-85.893-85.924-85.893z" />
<glyph unicode="&#xe0ac;" d="M291 594.995l-184.136-506.184h103.086l30.587 89.58h179.855l29.86-89.58h103.076l-184.863 506.184h-77.466zM268.247 261.581l63.969 184.115 61.87-184.115h-125.839zM885.576 733.501v71.107h-169.574v58.358h-71.107v-58.358h-169.585v-71.107h292.116c-11.059-47.247-41.482-95.642-86.61-140.554-33.7 33.556-59.75 69.161-75.305 105.277l-65.331-28.109c18.657-43.325 48.466-85.135 86.661-123.996-40.888-30.915-89.016-58.972-142.694-82.248l28.273-65.219c64.020 27.781 120.771 61.645 168.479 99.359 47.862-37.857 104.079-71.813 167.547-99.359l28.344 65.219c-53.064 23.030-100.864 51.22-141.998 82.391 57.364 58.337 94.085 122.839 104.888 187.249h45.896z" />
<glyph unicode="&#xe0ad;" d="M676.392 575.878h-127.866c-14.080 0-26.808-5.468-36.526-14.254-9.718 8.776-22.436 14.254-36.546 14.254h-127.878c-50.36 0-91.33-40.95-91.33-91.33v-73.062c0-50.38 40.97-91.362 91.33-91.362h127.866c14.11 0 26.828 5.498 36.546 14.284 9.718-8.776 22.446-14.284 36.526-14.284h127.856c50.392 0 91.362 40.98 91.362 91.362v73.062c0.022 50.38-40.948 91.33-91.34 91.33zM512 415.478c-9.718 8.776-22.436 14.264-36.546 14.264h-109.59v36.556h109.588c14.11 0 26.828 5.468 36.546 14.254 9.718-8.776 22.446-14.254 36.526-14.254h109.608v-36.556h-109.606c-14.080 0-26.808-5.478-36.526-14.264zM475.454 356.68h-127.878c-30.218 0-54.804 24.576-54.804 54.804v73.062c0 30.218 24.576 54.804 54.804 54.804h127.866c10.076 0 18.268-8.192 18.268-18.248 0-10.086-8.192-18.278-18.268-18.278h-146.134v-109.62h146.136c10.076 0 18.268-8.182 18.268-18.258 0.010-10.064-8.182-18.266-18.258-18.266zM731.198 411.484c0-30.218-24.586-54.804-54.814-54.804h-127.858c-10.076 0-18.278 8.202-18.278 18.258 0 10.076 8.202 18.258 18.278 18.258h146.136v109.628h-146.136c-10.076 0-18.278 8.192-18.278 18.278 0 10.056 8.202 18.248 18.278 18.248h127.856c30.218 0 54.814-24.586 54.814-54.804l0.002-73.062z" />
<glyph unicode="&#xe0ae;" d="M881.776 686.714h-511.386c-11.090 0-20.080-9-20.080-20.080v-200.918h40.162v89.498h471.224v-270.326h-192.308v-40.172h212.388c11.11 0 20.080 9 20.080 20.090l0.002 401.838c0 11.080-8.97 20.070-20.082 20.070zM861.686 595.394h-471.214v51.16h471.224v-51.16zM540.968 429.19h-127.824c-14.11 0-26.808-5.498-36.526-14.274-9.718 8.766-22.446 14.274-36.526 14.274h-127.868c-50.36 0-91.33-40.94-91.33-91.33v-73.052c0-50.37 40.97-91.31 91.33-91.31h127.866c14.080 0 26.808 5.498 36.526 14.284 9.728-8.776 22.416-14.284 36.526-14.284h127.826c50.36 0 91.34 40.94 91.34 91.31v73.052c0.002 50.39-40.978 91.33-91.34 91.33zM376.606 268.81c-9.718 8.766-22.446 14.274-36.526 14.274h-109.578v36.526h109.588c14.080 0 26.808 5.498 36.526 14.284 9.728-8.776 22.416-14.284 36.526-14.284h109.578v-36.526h-109.576c-14.112 0-26.81-5.508-36.538-14.274zM340.080 210.032h-127.856c-30.218 0-54.804 24.576-54.804 54.784v73.052c0 30.218 24.586 54.814 54.804 54.814h127.866c10.056 0 18.248-8.202 18.248-18.278 0-10.056-8.192-18.248-18.248-18.248l-146.144 0.002v-109.578h146.136c10.056 0 18.248-8.202 18.248-18.278 0.008-10.078-8.194-18.27-18.25-18.27zM595.784 264.806c0-30.198-24.586-54.784-54.814-54.784h-127.826c-10.086 0-18.278 8.192-18.278 18.248 0 10.076 8.192 18.278 18.278 18.278h146.114v109.588h-146.114c-10.086 0-18.278 8.192-18.278 18.248 0 10.076 8.192 18.278 18.278 18.278h127.826c30.218 0 54.814-24.586 54.814-54.814v-73.042z" />
<glyph unicode="&#xe0af;" d="M812.688 557.056v-310.498c0-11.090-8.97-20.090-20.080-20.090h-109.58v40.172h89.498v282.080l-116.090 116.082h-245.546v-199.086h-40.172v219.176c0 11.080 9 20.080 20.080 20.080h273.982c5.336 0 10.444-2.11 14.192-5.888l127.856-127.836c3.78-3.748 5.86-8.888 5.86-14.192zM646.502 337.858v-73.052c0-50.37-40.94-91.31-91.31-91.31h-127.856c-14.080 0-26.808 5.498-36.526 14.284-9.718-8.776-22.416-14.284-36.526-14.284h-127.836c-50.36 0-91.33 40.94-91.33 91.31v73.052c0 50.392 40.97 91.33 91.33 91.33h127.836c14.11 0 26.808-5.498 36.526-14.274 9.728 8.766 22.446 14.274 36.526 14.274h127.856c50.37 0.002 91.31-40.938 91.31-91.33zM427.336 283.084h109.588v36.526h-109.588c-14.080 0-26.808 5.498-36.526 14.284-9.718-8.776-22.416-14.284-36.526-14.284h-109.588v-36.526h109.588c14.11 0 26.808-5.498 36.526-14.274 9.718 8.766 22.436 14.274 36.526 14.274zM372.552 228.28c0 10.076-8.192 18.278-18.278 18.278h-146.106v109.578h146.114c10.076 0 18.278 8.192 18.278 18.248 0 10.076-8.192 18.278-18.278 18.278l-127.834 0.002c-30.228 0-54.804-24.586-54.804-54.814v-73.052c0-30.198 24.576-54.784 54.804-54.784h127.836c10.076 0.018 18.268 8.21 18.268 18.266zM609.966 337.858c0 30.218-24.546 54.814-54.784 54.814l-127.846 0.002c-10.056 0-18.248-8.202-18.248-18.278 0-10.056 8.192-18.248 18.248-18.248h146.104v-109.578l-146.104-0.002c-10.056 0-18.248-8.202-18.248-18.278 0-10.056 8.192-18.248 18.248-18.248h127.856c30.228 0 54.784 24.576 54.784 54.784v73.032z" />
<glyph unicode="&#xe0b0;" d="M692.562 463.944c0-22.108-8.418-42.024-21.75-57.63-18.34 35.082-54.672 59.412-96.778 59.412h-60.888c0.942 48.67 40.418 88.33 89.364 88.33 49.43 0 90.052-40.612 90.052-90.112zM811.612 554.056c-49.47 0-89.548-40.612-89.548-90.112s40.080-89.508 89.548-89.508c49.562 0 90.060 39.998 90.060 89.508 0 49.5-40.498 90.112-90.060 90.112zM797.112 649.636c0 49.52-40.55 90.082-90.050 90.082-49.53 0-89.528-40.55-89.528-90.082 0-49.53 39.998-89.56 89.528-89.56 49.5 0.012 90.050 40.028 90.050 89.56zM646.502 337.858v-73.052c0-50.37-40.94-91.31-91.31-91.31h-127.856c-14.080 0-26.808 5.468-36.526 14.254-9.718-8.776-22.416-14.254-36.526-14.254h-127.868c-50.33 0-91.31 40.94-91.31 91.31v73.052c0 50.392 40.97 91.33 91.31 91.33h127.866c14.11 0 26.808-5.498 36.526-14.274 9.728 8.766 22.446 14.274 36.526 14.274h127.856c50.372 0.002 91.312-40.938 91.312-91.33zM427.336 283.064h109.608v36.546h-109.608c-14.080 0-26.808 5.498-36.526 14.254-9.718-8.744-22.416-14.254-36.526-14.254h-109.588v-36.546h109.588c14.11 0 26.808-5.478 36.526-14.254 9.718 8.766 22.436 14.254 36.526 14.254zM372.552 228.312c0 10.024-8.192 18.248-18.278 18.248l-146.106-0.002v109.578h146.114c10.076 0 18.278 8.192 18.278 18.278 0 10.024-8.192 18.216-18.278 18.216l-127.866 0.002c-30.198 0-54.774-24.556-54.774-54.784v-73.052c0-30.228 24.576-54.784 54.774-54.784h127.866c10.078 0.020 18.27 8.212 18.27 18.3zM609.966 337.858c0 30.218-24.546 54.784-54.784 54.784h-127.846c-10.056 0-18.248-8.202-18.248-18.216 0-10.086 8.192-18.278 18.248-18.278h146.104v-109.578l-146.104-0.002c-10.056 0-18.248-8.232-18.248-18.248 0-10.086 8.192-18.278 18.248-18.278h127.856c30.228 0 54.784 24.546 54.784 54.784v73.032z" />
<glyph unicode="&#xe0b1;" d="M555.192 557.056c0-30.248-24.546-54.804-54.804-54.804s-54.784 24.556-54.784 54.804c0 30.228 24.536 54.784 54.784 54.784s54.804-24.556 54.804-54.784zM865.67 684.892h-474.86c-10.086 0-18.248-8.172-18.248-18.248v-200.928h36.526v182.64h438.334v-255.692l-91.34 91.33-71.22-71.25v-166.184h180.808c10.106 0 18.268 8.162 18.268 18.248v401.836c0 10.076-8.162 18.248-18.268 18.248zM646.502 337.858v-73.052c0-50.37-40.94-91.31-91.31-91.31h-127.856c-14.080 0-26.808 5.498-36.526 14.284-9.718-8.776-22.416-14.284-36.526-14.284h-127.836c-50.36 0-91.33 40.94-91.33 91.31v73.052c0 50.392 40.97 91.33 91.33 91.33h127.836c14.11 0 26.808-5.498 36.526-14.274 9.728 8.766 22.446 14.274 36.526 14.274h127.856c50.37 0.002 91.31-40.938 91.31-91.33zM427.336 283.084h109.588v36.526h-109.588c-14.080 0-26.808 5.498-36.526 14.284-9.718-8.776-22.416-14.284-36.526-14.284h-109.588v-36.526h109.588c14.11 0 26.808-5.498 36.526-14.274 9.718 8.766 22.436 14.274 36.526 14.274zM372.552 228.28c0 10.076-8.192 18.278-18.278 18.278h-146.106v109.578h146.114c10.076 0 18.278 8.192 18.278 18.248 0 10.076-8.192 18.278-18.278 18.278l-127.834 0.002c-30.228 0-54.804-24.586-54.804-54.814v-73.052c0-30.198 24.576-54.784 54.804-54.784h127.836c10.076 0.018 18.268 8.21 18.268 18.266zM609.966 337.858c0 30.218-24.546 54.814-54.784 54.814l-127.846 0.002c-10.056 0-18.248-8.202-18.248-18.278 0-10.056 8.192-18.248 18.248-18.248h146.104v-109.578l-146.104-0.002c-10.056 0-18.248-8.202-18.248-18.278 0-10.056 8.192-18.248 18.248-18.248h127.856c30.228 0 54.784 24.576 54.784 54.784v73.032z" />
<glyph unicode="&#xe0b2;" d="M512 415.468c-9.718 8.776-22.446 14.254-36.526 14.254h-109.588v36.556h109.578c14.080 0 26.808 5.468 36.526 14.254 9.718-8.776 22.436-14.254 36.526-14.254h109.578v-18.278h36.526v54.804h-146.094c-10.086 0-18.248 8.192-18.248 18.248s8.162 18.278 18.248 18.278h127.856c30.188 0 54.784-24.586 54.784-54.804v-36.526h36.516v36.526c0 50.36-40.97 91.33-91.3 91.33h-127.856c-14.090 0-26.808-5.498-36.526-14.274-9.718 8.776-22.446 14.274-36.526 14.274h-127.836c-50.36 0-91.33-40.97-91.33-91.33v-73.062c0-50.36 40.97-91.33 91.33-91.33h127.826c14.080 0 26.808 5.498 36.526 14.284v81.050zM475.474 356.67h-127.836c-30.228 0-54.804 24.576-54.804 54.804v73.062c0 30.218 24.576 54.804 54.804 54.804h127.826c10.086 0 18.278-8.222 18.278-18.278s-8.192-18.248-18.278-18.248h-146.104v-109.598h146.114c10.086 0 18.278-8.222 18.278-18.278 0-10.046-8.202-18.268-18.278-18.268zM832.686 193.424c10.7-10.732 10.7-28.058 0-38.748-5.356-5.356-12.36-8.028-19.364-8.028-7.024 0-14.018 2.672-19.394 8.028l-81.080 81.080-81.080-81.080c-5.336-5.356-12.36-8.028-19.364-8.028s-14.028 2.672-19.364 8.028c-10.7 10.69-10.7 28.016 0 38.748l81.080 81.080-81.080 81.080c-10.7 10.7-10.7 28.026 0 38.728 10.69 10.722 28.016 10.722 38.718 0l81.080-81.090 81.080 81.090c10.732 10.722 28.058 10.722 38.748 0 10.7-10.7 10.7-28.026 0-38.728l-81.080-81.080 81.1-81.080z" />
<glyph unicode="&#xe0b3;" d="M832 448c0-176.742-143.278-320-320-320-176.66 0-320 143.258-320 320s143.34 320 320 320c176.722 0 320-143.258 320-320z" />
<glyph unicode="&#xe0b4;" d="M768 448c0-141.394-114.616-256-256-256-141.332 0-256 114.606-256 256s114.668 256 256 256c141.384 0 256-114.606 256-256z" />
<glyph unicode="&#xe0b5;" d="M87.686 115.814l424.314 727.398 424.304-727.398z" />
<glyph unicode="&#xe0b6;" d="M512 716.186l-312.894-536.372h625.778z" />
<glyph unicode="&#xe600;" d="M512.082 832l-412.242-706.56h824.32l-412.078 706.56zM512.082 719.002l313.057-536.637h-626.104l313.047 536.637zM528.486 341.934l14.1 222.689h-72.858l14.121-222.689zM474.726 300.882h62.904v-60.58h-62.904v60.58z" />
<glyph unicode="&#xe601;" d="M512 765.44c-175.401 0-317.44-142.141-317.44-317.44 0-175.34 142.039-317.44 317.44-317.44 175.196 0 317.44 142.1 317.44 317.44 0 175.299-142.244 317.44-317.44 317.44zM512 188.283c-143.503 0-259.727 116.265-259.727 259.717 0 143.411 116.224 259.727 259.727 259.727 143.36 0 259.717-116.306 259.717-259.727 0-143.452-116.357-259.717-259.717-259.717zM489.288 386.56h45.251l14.275 225.853h-73.871zM479.99 345.016h63.805v-61.46h-63.805v61.46z" />
<glyph unicode="&#xe602;" d="M512 765.44c-175.401 0-317.44-142.121-317.44-317.44s142.039-317.44 317.44-317.44c175.196 0 317.44 142.121 317.44 317.44s-142.244 317.44-317.44 317.44zM512 188.283c-143.503 0-259.727 116.265-259.727 259.717 0 143.411 116.224 259.727 259.727 259.727 143.36 0 259.717-116.306 259.717-259.727 0-143.452-116.357-259.717-259.717-259.717zM482.212 523.274h60.027v-240.579h-60.027v240.579zM481.29 613.315h61.42v-48.947h-61.42v48.947z" />
<glyph unicode="&#xe603;" d="M512 765.44c-175.401 0-317.44-142.121-317.44-317.44s142.039-317.44 317.44-317.44c175.196 0 317.44 142.121 317.44 317.44s-142.244 317.44-317.44 317.44zM512 188.283c-143.503 0-259.727 116.265-259.727 259.717 0 143.411 116.224 259.727 259.727 259.727 143.36 0 259.717-116.306 259.717-259.727 0-143.452-116.357-259.717-259.717-259.717zM474.665 346.624h63.724v-61.42h-63.724v61.42zM504.228 616.745c-53.565 0-96.973-35.092-96.973-92.355h60.027c0 21.248 12.472 38.328 36.946 38.328 23.081 0 37.396-16.159 37.396-37.868 0-10.158-6.001-21.238-13.394-30.935l-34.161-43.868c-12.012-15.698-17.551-28.16-17.551-48.026v-13.855h60.027v9.697c0 7.854 3.697 17.541 8.315 23.552l34.171 45.251c12.933 17.080 22.63 34.632 22.63 57.723 0 58.655-45.251 92.355-97.434 92.355z" />
</font>
</defs>
</svg>
