<?xml version="1.0" encoding="utf-8"?>
<svg version="1.1" xmlns="http://www.w3.org/2000/svg" xmlns:xlink="http://www.w3.org/1999/xlink" x="0" y="0" width="100" height="100" viewBox="0 0 100 100" xml:space="preserve">
<path fill="#666" d="M39.415,75.43c-5.31,0-10.664-2.835-10.664-10.035h7.379c0,2.25,1.44,3.375,3.285,3.375c1.935,0,3.285-1.125,3.285-3.42
  c0-1.935-1.44-3.375-3.42-3.375h-1.035v-6.389h1.035c2.205,0,3.06-1.575,3.06-3.016c0-2.024-1.395-3.06-2.925-3.06
  s-2.925,1.08-2.925,3.015h-7.38c0-6.03,4.59-9.674,10.305-9.674c5.939,0,10.305,3.96,10.305,9.495c0,3.51-1.71,5.22-3.33,6.255
  c1.755,1.215,3.69,3.149,3.69,6.975C50.08,72.279,45.04,75.43,39.415,75.43z M61.87,75.16V50.996l-6.84,5.94v-7.875l6.84-5.939
  h7.379V75.16H61.87z M81,16v5.5c0,3.309-2.691,6-6,6s-6-2.691-6-6V16H31v5.5c0,3.309-2.691,6-6,6s-6-2.691-6-6V16H6v72h88V16H81z
  M88,82H12V36h76V82z M25,7.5c-1.654,0-3,1.346-3,3v11c0,1.654,1.346,3,3,3s3-1.346,3-3v-11C28,8.846,26.654,7.5,25,7.5z M75,7.5
  c-1.654,0-3,1.346-3,3v11c0,1.654,1.346,3,3,3s3-1.346,3-3v-11C78,8.846,76.654,7.5,75,7.5z"/>
</svg>