<?xml version="1.0" encoding="utf-8"?>
<svg version="1.1" xmlns="http://www.w3.org/2000/svg" xmlns:xlink="http://www.w3.org/1999/xlink" x="0" y="0" width="100" height="100" viewBox="0 0 100 100" xml:space="preserve">
<path fill="#666" d="M5.555,13.889v72.223h88.89V13.889H5.555z M22.179,80.556H11.111v-9.707h11.068V80.556z M22.179,65.262
	H11.111v-9.69h11.068V65.262z M22.179,49.984H11.111v-9.691h11.068V49.984z M38.846,80.556H27.821v-9.707h11.025V80.556z
	 M38.846,65.262H27.821v-9.69h11.025V65.262z M38.846,49.984H27.821v-9.691h11.025V49.984z M55.512,80.556H44.488v-9.707h11.024
	V80.556z M55.512,65.262H44.488v-9.69h11.024V65.262z M55.512,49.984H44.488v-9.691h11.024V49.984z M61.154,49.984v-9.691H72.18
	v9.691H61.154z M72.18,80.556H61.154v-9.707H72.18V80.556z M88.889,80.556H77.82v-9.707h11.068V80.556z M88.889,65.262H77.82v-9.69
	h11.068V65.262z M88.889,49.984H77.82v-9.691h11.068V49.984z M88.889,34.707H11.111V19.444h77.778V34.707z"/>
</svg>
