<?xml version="1.0" encoding="utf-8"?>
<!-- Generator: Adobe Illustrator 15.0.0, SVG Export Plug-In . SVG Version: 6.00 Build 0)  -->
<!DOCTYPE svg PUBLIC "-//W3C//DTD SVG 1.1//EN" "http://www.w3.org/Graphics/SVG/1.1/DTD/svg11.dtd">
<svg version="1.1" id="Ebene_1" xmlns="http://www.w3.org/2000/svg" xmlns:xlink="http://www.w3.org/1999/xlink" x="0px" y="0px"
	 width="100px" height="100px" viewBox="0 0 100 100" enable-background="new 0 0 100 100" xml:space="preserve">
<rect fill="none" width="100" height="100"/>
<path fill="#999" d="M50,86.111c-19.912,0-36.111-16.199-36.111-36.111c0-19.912,16.199-36.111,36.111-36.111
	S86.111,30.088,86.111,50C86.111,69.912,69.912,86.111,50,86.111z M50,19.444c-16.849,0-30.556,13.707-30.556,30.556
	S33.151,80.556,50,80.556S80.556,66.849,80.556,50S66.849,19.444,50,19.444z"/>
<path fill="#1A171B" d="M66.666,50c0,9.207-7.459,16.667-16.666,16.667c-9.201,0-16.667-7.46-16.667-16.667S40.799,33.333,50,33.333
	C59.207,33.333,66.666,40.793,66.666,50z"/>
</svg>
