<?xml version="1.0" encoding="utf-8"?>
<!-- Generator: Adobe Illustrator 15.0.0, SVG Export Plug-In . SVG Version: 6.00 Build 0)  -->
<!DOCTYPE svg PUBLIC "-//W3C//DTD SVG 1.1//EN" "http://www.w3.org/Graphics/SVG/1.1/DTD/svg11.dtd">
<svg version="1.1" id="Ebene_1" xmlns="http://www.w3.org/2000/svg" xmlns:xlink="http://www.w3.org/1999/xlink" x="0px" y="0px"
	 width="100px" height="100px" viewBox="0 0 100 100" enable-background="new 0 0 100 100" xml:space="preserve">
<rect fill="none" width="100" height="100"/>
<polygon fill="#1A171B" points="21.527,10.417 21.527,25.6 28.473,25.6 28.473,17.361 71.527,17.361 71.527,66.667 55.555,66.667 
	55.555,82.639 28.473,82.639 28.473,61.711 21.527,61.711 21.527,89.583 59.771,89.583 78.473,70.883 78.473,10.417 "/>
<g>
	<path fill="#1A171B" d="M16.467,47.336h-3.805v7.445H8.8V35.003h7.667c4.083,0,6.528,2.806,6.528,6.167
		C22.995,44.531,20.55,47.336,16.467,47.336z M16.272,38.447h-3.611v5.417h3.611c1.75,0,2.861-1.083,2.861-2.695
		S18.022,38.447,16.272,38.447z"/>
	<path fill="#1A171B" d="M38.605,52.893c-1.305,1.305-3.166,1.889-5.222,1.889h-7.139V35.003h7.139c2.056,0,3.917,0.583,5.222,1.889
		c2.223,2.222,2,4.944,2,7.917C40.605,47.781,40.828,50.669,38.605,52.893z M35.911,39.67c-0.667-0.806-1.556-1.223-2.889-1.223
		h-2.917v12.889h2.917c1.333,0,2.223-0.417,2.889-1.222c0.722-0.889,0.833-2.306,0.833-5.306
		C36.744,41.808,36.633,40.559,35.911,39.67z"/>
	<path fill="#1A171B" d="M48.411,38.447v4.861h7.806v3.444h-7.806v8.028h-3.861V35.003h13.029v3.444H48.411z"/>
</g>
</svg>
