<?xml version="1.0" encoding="utf-8"?>
<!-- Generator: Adobe Illustrator 15.0.0, SVG Export Plug-In . SVG Version: 6.00 Build 0)  -->
<!DOCTYPE svg PUBLIC "-//W3C//DTD SVG 1.1//EN" "http://www.w3.org/Graphics/SVG/1.1/DTD/svg11.dtd">
<svg version="1.1" id="Ebene_1" xmlns="http://www.w3.org/2000/svg" xmlns:xlink="http://www.w3.org/1999/xlink" x="0px" y="0px"
	 width="100px" height="100px" viewBox="0 0 100 100" enable-background="new 0 0 100 100" xml:space="preserve">
<rect fill="none" width="100" height="100"/>
<g>
	<path fill="#1A171B" d="M50,34.849c-8.354,0-15.151,6.797-15.151,15.151c0,8.354,6.797,15.151,15.151,15.151
		c8.354,0,15.15-6.797,15.15-15.151C65.15,41.646,58.354,34.849,50,34.849z M45.454,61.871V37.627l14.14,12.123L45.454,61.871z"/>
	<path fill="#1A171B" d="M13.889,23.611v52.777h72.223V23.611H13.889z M50,68.182c-10.025,0-18.182-8.156-18.182-18.182
		S39.975,31.818,50,31.818S68.182,39.975,68.182,50S60.025,68.182,50,68.182z"/>
</g>
</svg>
